<?xml version="1.0" encoding="UTF-8" standalone="no"?>
<svg
   xmlns:dc="http://purl.org/dc/elements/1.1/"
   xmlns:cc="http://creativecommons.org/ns#"
   xmlns:rdf="http://www.w3.org/1999/02/22-rdf-syntax-ns#"
   xmlns:svg="http://www.w3.org/2000/svg"
   xmlns="http://www.w3.org/2000/svg"
   viewBox="0 0 1122.52 1587.4"
   height="1587.4"
   width="1122.52"
   xml:space="preserve"
   id="svg2"
   version="1.1"><metadata
     id="metadata8"><rdf:RDF><cc:Work
         rdf:about=""><dc:format>image/svg+xml</dc:format><dc:type
           rdf:resource="http://purl.org/dc/dcmitype/StillImage" /></cc:Work></rdf:RDF></metadata><defs
     id="defs6"><clipPath
       id="clipPath18"
       clipPathUnits="userSpaceOnUse"><path
         id="path16"
         d="M 0,1190.55 H 841.89 V 0 H 0 Z" /></clipPath></defs><g
     transform="matrix(1.3333333,0,0,-1.3333333,0,1587.4)"
     id="g10"><g
       id="g12"><g
         clip-path="url(#clipPath18)"
         id="g14"><g
           transform="translate(284.4731,839.9121)"
           id="g20"><path
             id="path22"
             style="fill:#3f4096;fill-opacity:1;fill-rule:nonzero;stroke:none"
             d="m 0,0 c 0.021,0.18 0.199,0.318 0.358,0.318 h 0.319 c 0.099,0 0.278,-0.079 0.338,-0.199 l 4.616,-8.596 h 0.04 l 4.616,8.596 c 0.06,0.12 0.239,0.199 0.338,0.199 h 0.318 c 0.16,0 0.339,-0.138 0.359,-0.318 l 2.248,-13.371 c 0.04,-0.259 -0.139,-0.438 -0.378,-0.438 h -2.348 c -0.178,0 -0.358,0.16 -0.378,0.319 L 9.551,-7.342 H 9.511 L 6.168,-13.789 C 6.108,-13.908 5.93,-14.008 5.83,-14.008 H 5.472 c -0.119,0 -0.279,0.1 -0.338,0.219 L 1.771,-7.342 H 1.731 L 0.855,-13.49 C 0.836,-13.649 0.677,-13.809 0.478,-13.809 H -1.87 c -0.239,0 -0.418,0.179 -0.378,0.438 z" /></g><g
           transform="translate(306.7056,829.0879)"
           id="g24"><path
             id="path26"
             style="fill:#3f4096;fill-opacity:1;fill-rule:nonzero;stroke:none"
             d="M 0,0 C 2.188,0 3.979,1.791 3.979,3.96 3.979,6.148 2.188,7.959 0,7.959 -2.169,7.959 -3.96,6.148 -3.96,3.96 -3.96,1.791 -2.169,0 0,0 m 0,11.143 c 3.979,0 7.163,-3.204 7.163,-7.183 0,-3.98 -3.184,-7.144 -7.163,-7.144 -3.979,0 -7.144,3.164 -7.144,7.144 0,3.979 3.165,7.183 7.144,7.183" /></g><g
           transform="translate(316.0815,839.6533)"
           id="g28"><path
             id="path30"
             style="fill:#3f4096;fill-opacity:1;fill-rule:nonzero;stroke:none"
             d="M 0,0 C 0,0.199 0.18,0.378 0.379,0.378 H 2.826 C 3.045,0.378 3.204,0.199 3.204,0 v -8.058 c 0,-1.393 1.034,-2.507 2.447,-2.507 1.433,0 2.488,1.114 2.488,2.507 V 0 c 0,0.199 0.159,0.378 0.378,0.378 h 2.447 c 0.199,0 0.378,-0.179 0.378,-0.378 v -8.218 c 0,-3.023 -2.547,-5.531 -5.691,-5.531 -3.124,0 -5.651,2.508 -5.651,5.531 z" /></g><g
           transform="translate(329.8364,827.9941)"
           id="g32"><path
             id="path34"
             style="fill:#3f4096;fill-opacity:1;fill-rule:nonzero;stroke:none"
             d="M 0,0 0.936,1.651 C 1.095,1.91 1.473,1.87 1.612,1.771 1.691,1.73 3.124,0.676 4.437,0.676 c 0.796,0 1.374,0.498 1.374,1.194 0,0.836 -0.697,1.473 -2.05,2.01 C 2.05,4.557 -0.1,5.89 -0.1,8.277 c 0,1.97 1.533,3.959 4.597,3.959 2.069,0 3.661,-1.054 4.258,-1.492 0.239,-0.139 0.199,-0.497 0.119,-0.637 L 7.859,8.575 C 7.721,8.356 7.362,8.178 7.184,8.316 7.004,8.416 5.552,9.511 4.338,9.511 3.622,9.511 3.084,9.033 3.084,8.496 3.084,7.76 3.682,7.202 5.253,6.565 6.806,5.949 9.272,4.735 9.272,2.029 9.272,-0.021 7.502,-2.09 4.577,-2.09 1.99,-2.09 0.558,-1.016 0.1,-0.558 -0.1,-0.358 -0.159,-0.279 0,0" /></g><g
           transform="translate(340.7437,827.9941)"
           id="g36"><path
             id="path38"
             style="fill:#3f4096;fill-opacity:1;fill-rule:nonzero;stroke:none"
             d="M 0,0 0.936,1.651 C 1.095,1.91 1.473,1.87 1.612,1.771 1.691,1.73 3.124,0.676 4.437,0.676 c 0.796,0 1.374,0.498 1.374,1.194 0,0.836 -0.697,1.473 -2.05,2.01 C 2.05,4.557 -0.1,5.89 -0.1,8.277 c 0,1.97 1.533,3.959 4.597,3.959 2.069,0 3.661,-1.054 4.258,-1.492 0.239,-0.139 0.199,-0.497 0.12,-0.637 L 7.859,8.575 C 7.721,8.356 7.362,8.178 7.184,8.316 7.004,8.416 5.552,9.511 4.338,9.511 3.621,9.511 3.084,9.033 3.084,8.496 3.084,7.76 3.682,7.202 5.253,6.565 6.805,5.949 9.272,4.735 9.272,2.029 9.272,-0.021 7.502,-2.09 4.576,-2.09 1.99,-2.09 0.558,-1.016 0.1,-0.558 -0.1,-0.358 -0.159,-0.279 0,0" /></g><g
           transform="translate(352.4468,839.6533)"
           id="g40"><path
             id="path42"
             style="fill:#3f4096;fill-opacity:1;fill-rule:nonzero;stroke:none"
             d="M 0,0 C 0,0.199 0.159,0.378 0.378,0.378 H 8.616 C 8.835,0.378 8.994,0.199 8.994,0 v -2.169 c 0,-0.198 -0.159,-0.378 -0.378,-0.378 H 3.104 v -2.467 h 4.537 c 0.199,0 0.378,-0.178 0.378,-0.378 v -2.169 c 0,-0.218 -0.179,-0.377 -0.378,-0.377 H 3.104 v -2.687 h 5.512 c 0.219,0 0.378,-0.179 0.378,-0.378 v -2.169 c 0,-0.199 -0.159,-0.378 -0.378,-0.378 H 0.378 C 0.159,-13.55 0,-13.371 0,-13.172 Z" /></g><g
           transform="translate(319.2866,858.6631)"
           id="g44"><path
             id="path46"
             style="fill:#3f4096;fill-opacity:1;fill-rule:nonzero;stroke:none"
             d="M 0,0 C 0,0.199 0.159,0.378 0.378,0.378 H 8.616 C 8.835,0.378 8.994,0.199 8.994,0 v -2.169 c 0,-0.198 -0.159,-0.378 -0.378,-0.378 H 3.104 v -2.865 h 4.537 c 0.199,0 0.378,-0.179 0.378,-0.378 v -2.169 c 0,-0.198 -0.179,-0.378 -0.378,-0.378 H 3.104 v -4.835 c 0,-0.199 -0.179,-0.378 -0.377,-0.378 H 0.378 C 0.159,-13.55 0,-13.371 0,-13.172 Z" /></g><g
           transform="translate(330.4927,858.6631)"
           id="g48"><path
             id="path50"
             style="fill:#3f4096;fill-opacity:1;fill-rule:nonzero;stroke:none"
             d="M 0,0 C 0,0.199 0.18,0.378 0.378,0.378 H 2.766 C 2.965,0.378 3.144,0.199 3.144,0 v -13.172 c 0,-0.199 -0.179,-0.378 -0.378,-0.378 H 0.378 C 0.18,-13.55 0,-13.371 0,-13.172 Z" /></g><g
           transform="translate(337.0415,858.8828)"
           id="g52"><path
             id="path54"
             style="fill:#3f4096;fill-opacity:1;fill-rule:nonzero;stroke:none"
             d="m 0,0 c 0,0.198 0.179,0.357 0.378,0.357 h 0.497 l 7.939,-7.64 h 0.02 v 7.063 c 0,0.199 0.159,0.378 0.378,0.378 h 2.389 c 0.198,0 0.378,-0.179 0.378,-0.378 v -13.39 c 0,-0.2 -0.18,-0.359 -0.378,-0.359 h -0.319 c -0.06,0 -0.219,0.06 -0.259,0.1 L 3.163,-5.97 H 3.144 v -7.422 c 0,-0.199 -0.16,-0.378 -0.378,-0.378 H 0.397 c -0.198,0 -0.377,0.179 -0.377,0.378 z" /></g><g
           transform="translate(352.4468,858.6631)"
           id="g56"><path
             id="path58"
             style="fill:#3f4096;fill-opacity:1;fill-rule:nonzero;stroke:none"
             d="M 0,0 C 0,0.199 0.159,0.378 0.378,0.378 H 8.616 C 8.835,0.378 8.994,0.199 8.994,0 v -2.169 c 0,-0.198 -0.159,-0.378 -0.378,-0.378 H 3.104 v -2.467 h 4.537 c 0.199,0 0.378,-0.178 0.378,-0.378 v -2.169 c 0,-0.218 -0.179,-0.377 -0.378,-0.377 H 3.104 v -2.687 h 5.512 c 0.219,0 0.378,-0.179 0.378,-0.378 v -2.169 c 0,-0.199 -0.159,-0.378 -0.378,-0.378 H 0.378 C 0.159,-13.55 0,-13.371 0,-13.172 Z" /></g><g
           transform="translate(329.6489,874.6416)"
           id="g60"><path
             id="path62"
             style="fill:#3f4096;fill-opacity:1;fill-rule:nonzero;stroke:none"
             d="M 0,0 H -2.758 C -2.97,0 -3.124,0.174 -3.124,0.366 v 2.103 c 0,0.192 0.154,0.366 0.366,0.366 h 8.564 c 0.212,0 0.366,-0.174 0.366,-0.366 V 0.366 C 6.172,0.174 6.018,0 5.806,0 H 3.048 v -10.3 c 0,-0.192 -0.174,-0.366 -0.367,-0.366 H 0.366 C 0.174,-10.666 0,-10.492 0,-10.3 Z" /></g><g
           transform="translate(337.7476,877.1104)"
           id="g64"><path
             id="path66"
             style="fill:#3f4096;fill-opacity:1;fill-rule:nonzero;stroke:none"
             d="M 0,0 C 0,0.192 0.173,0.366 0.366,0.366 H 2.661 C 2.873,0.366 3.027,0.192 3.027,0 V -4.86 H 8.544 V 0 c 0,0.192 0.154,0.366 0.366,0.366 h 2.295 c 0.193,0 0.367,-0.174 0.367,-0.366 v -12.769 c 0,-0.192 -0.174,-0.366 -0.367,-0.366 H 8.91 c -0.212,0 -0.366,0.174 -0.366,0.366 v 5.074 H 3.027 v -5.074 c 0,-0.192 -0.154,-0.366 -0.366,-0.366 H 0.366 C 0.173,-13.135 0,-12.961 0,-12.769 Z" /></g><g
           transform="translate(352.6343,877.1104)"
           id="g68"><path
             id="path70"
             style="fill:#3f4096;fill-opacity:1;fill-rule:nonzero;stroke:none"
             d="M 0,0 C 0,0.192 0.154,0.366 0.366,0.366 H 8.351 C 8.563,0.366 8.717,0.192 8.717,0 v -2.103 c 0,-0.192 -0.154,-0.366 -0.366,-0.366 H 3.008 V -4.86 h 4.398 c 0.193,0 0.366,-0.174 0.366,-0.367 v -2.102 c 0,-0.212 -0.173,-0.366 -0.366,-0.366 H 3.008 V -10.3 h 5.343 c 0.212,0 0.366,-0.173 0.366,-0.366 v -2.103 c 0,-0.192 -0.154,-0.366 -0.366,-0.366 H 0.366 C 0.154,-13.135 0,-12.961 0,-12.769 Z" /></g><g
           transform="translate(358.0015,888.1997)"
           id="g72"><path
             id="path74"
             style="fill:#e8483d;fill-opacity:1;fill-rule:nonzero;stroke:none"
             d="m 0,0 c 0,-1.259 -1.024,-2.282 -2.283,-2.282 h -20.742 l -0.144,-0.005 c -0.033,-0.003 -0.259,-0.016 -0.634,-0.016 -1.715,0 -7.659,0.307 -12.153,4.262 -9.541,8.394 -25.266,9.3 -31.583,9.3 -1.295,0 -2.145,-0.038 -2.392,-0.052 -1.237,0.025 -2.235,1.039 -2.235,2.281 v 4.969 h 13.342 c 4.774,0 7.625,2.785 7.625,7.451 h -4 c 0,-2.419 -1.084,-3.451 -3.625,-3.451 h -13.342 v 8.777 c 0,1.258 1.023,2.282 2.281,2.282 H -2.283 C -1.024,33.516 0,32.492 0,31.234 Z m -2.283,37.516 h -5.854 v 3.755 c 0,1.073 0.277,1.848 0.845,2.373 0.881,0.811 2.381,0.981 3.185,0.981 h 0.005 l 0.518,-0.021 v 10e-4 c 2.722,0.032 4.859,0.892 6.355,2.558 2.227,2.483 2.106,5.78 2.043,6.542 v 11.49 c 0,1.105 -0.895,2 -2,2 -1.104,0 -2,-0.895 -2,-2 V 53.614 l 0.011,-0.202 c 0.002,-0.022 0.195,-2.23 -1.047,-3.594 -0.701,-0.771 -1.816,-1.178 -3.315,-1.212 -0.597,0.041 -2.634,0.092 -4.6,-0.799 v 17.388 c 0,1.105 -0.895,2 -2,2 -1.104,0 -2,-0.895 -2,-2 V 41.271 37.516 h -8.951 v 3.755 23.924 c 0,1.105 -0.895,2 -2,2 -1.104,0 -2,-0.895 -2,-2 v -17.39 c -2.001,0.907 -4.076,0.837 -4.632,0.799 h -1.985 v 16.591 c 0,1.105 -0.896,2 -2,2 -1.105,0 -2,-0.895 -2,-2 V 48.604 h -9.408 v 16.591 c 0,1.105 -0.896,2 -2,2 -1.105,0 -2,-0.895 -2,-2 V 48.604 h -9.41 v 16.591 c 0,1.105 -0.896,2 -2,2 -1.105,0 -2,-0.895 -2,-2 V 48.604 h -4.704 c -1.6,0 -2.784,0.409 -3.516,1.214 -1.241,1.364 -1.049,3.572 -1.048,3.58 l 0.012,11.797 c 0,1.105 -0.896,2 -2,2 -1.105,0 -2,-0.895 -2,-2 v -11.49 c -0.063,-0.762 -0.184,-4.059 2.044,-6.542 1.523,-1.697 3.713,-2.559 6.508,-2.559 h 37.586 l 0.175,0.008 c 0.633,0.054 2.505,-0.02 3.533,-0.968 0.569,-0.525 0.845,-1.3 0.845,-2.373 v -3.755 h -44.797 c -3.464,0 -6.281,-2.818 -6.281,-6.282 V 13.488 c 0,-3.464 2.817,-6.281 6.281,-6.281 l 0.118,0.004 c 0.009,0 0.839,0.048 2.228,0.048 5.863,0 20.422,-0.809 28.94,-8.304 5.395,-4.746 12.145,-5.258 14.796,-5.258 0.417,0 0.707,0.013 0.841,0.021 H -2.283 C 1.182,-6.282 4,-3.464 4,0 v 31.234 c 0,3.464 -2.818,6.282 -6.283,6.282" /></g><g
           transform="translate(343.9556,910.4351)"
           id="g76"><path
             id="path78"
             style="fill:#e8483d;fill-opacity:1;fill-rule:nonzero;stroke:none"
             d="M 0,0 C -1.534,-0.886 -3.676,-0.884 -5.206,0.002 -6.107,0.523 -7.18,1.583 -7.177,3.67 l -4,0.006 c -0.005,-3.072 1.441,-5.674 3.967,-7.136 1.378,-0.797 2.993,-1.195 4.608,-1.195 1.612,0 3.224,0.396 4.6,1.19 2.533,1.46 3.985,4.062 3.985,7.138 h -4 C 1.983,1.582 0.905,0.521 0,0" /></g><g
           transform="translate(359.814,802.6934)"
           id="g80"><path
             id="path82"
             style="fill:#e8483d;fill-opacity:1;fill-rule:nonzero;stroke:none"
             d="m 0,0 h -76.166 c -1.105,0 -2,-0.896 -2,-2 v -15.591 c 0,-1.104 0.895,-2 2,-2 1.104,0 2,0.896 2,2 V -4 h 10.225 v -13.591 c 0,-1.104 0.895,-2 2,-2 1.104,0 2,0.896 2,2 V -4 h 45.804 v -13.553 c 0,-1.104 0.896,-2 2,-2 1.105,0 2,0.896 2,2 V -4 H -2 v -13.515 c 0,-1.104 0.896,-2 2,-2 1.104,0 2,0.896 2,2 L 2,-2 C 2,-0.896 1.104,0 0,0" /></g><g
           transform="translate(285.8706,810.165)"
           id="g84"><path
             id="path86"
             style="fill:#3f4096;fill-opacity:1;fill-rule:nonzero;stroke:none"
             d="M 0,0 C 0.268,0 0.49,0.223 0.49,0.491 0.49,0.759 0.268,0.981 0,0.981 H -1.474 V 0 Z m 0.327,-1.964 c 0.269,0 0.49,0.223 0.49,0.491 0,0.268 -0.221,0.491 -0.49,0.491 H -1.479 V -1.964 Z M 1.8,-1.473 c 0,-0.812 -0.661,-1.473 -1.473,-1.473 h -2.782 v 4.91 H 0 c 0.812,0 1.473,-0.661 1.473,-1.473 0,-0.295 -0.085,-0.57 -0.237,-0.805 C 1.577,-0.583 1.8,-1.002 1.8,-1.473" /></g><g
           transform="translate(294.2856,809.3467)"
           id="g88"><path
             id="path90"
             style="fill:#3f4096;fill-opacity:1;fill-rule:nonzero;stroke:none"
             d="m 0,0 c 0,-1.179 -0.956,-2.128 -2.128,-2.128 -1.178,0 -2.127,0.949 -2.127,2.128 v 2.782 h 0.982 V 0 c 0,-0.635 0.51,-1.146 1.145,-1.146 0.635,0 1.146,0.511 1.146,1.146 V 2.782 H 0 Z" /></g><g
           transform="translate(299.4937,810.165)"
           id="g92"><path
             id="path94"
             style="fill:#3f4096;fill-opacity:1;fill-rule:nonzero;stroke:none"
             d="M 0,0 C 0.268,0 0.49,0.223 0.49,0.491 0.49,0.759 0.268,0.981 0,0.981 H -1.474 V 0 Z m 0.327,-1.964 c 0.269,0 0.49,0.223 0.49,0.491 0,0.268 -0.221,0.491 -0.49,0.491 H -1.479 V -1.964 Z M 1.8,-1.473 c 0,-0.812 -0.661,-1.473 -1.473,-1.473 h -2.782 v 4.91 H 0 c 0.812,0 1.473,-0.661 1.473,-1.473 0,-0.295 -0.085,-0.57 -0.237,-0.805 C 1.577,-0.583 1.8,-1.002 1.8,-1.473" /></g><g
           transform="translate(306.2397,810.165)"
           id="g96"><path
             id="path98"
             style="fill:#3f4096;fill-opacity:1;fill-rule:nonzero;stroke:none"
             d="M 0,0 C 0.268,0 0.49,0.223 0.49,0.491 0.49,0.759 0.268,0.981 0,0.981 H -1.474 V 0 Z m 0.327,-1.964 c 0.269,0 0.49,0.223 0.49,0.491 0,0.268 -0.221,0.491 -0.49,0.491 H -1.479 V -1.964 Z M 1.8,-1.473 c 0,-0.812 -0.661,-1.473 -1.473,-1.473 h -2.782 v 4.91 H 0 c 0.812,0 1.473,-0.661 1.473,-1.473 0,-0.295 -0.085,-0.57 -0.237,-0.805 C 1.577,-0.583 1.8,-1.002 1.8,-1.473" /></g><g
           transform="translate(310.5308,812.1289)"
           id="g100"><path
             id="path102"
             style="fill:#3f4096;fill-opacity:1;fill-rule:nonzero;stroke:none"
             d="m 0,0 h 0.981 v -3.928 h 2.62 V -4.91 H 0 Z" /></g><g
           transform="translate(315.1157,812.1289)"
           id="g104"><path
             id="path106"
             style="fill:#3f4096;fill-opacity:1;fill-rule:nonzero;stroke:none"
             d="M 0,0 H 1.159 L 2.462,-2.082 3.771,0 H 4.93 L 2.952,-3.148 V -4.91 H 1.971 v 1.762 z" /></g><g
           transform="translate(326.8521,811.1006)"
           id="g108"><path
             id="path110"
             style="fill:#3f4096;fill-opacity:1;fill-rule:nonzero;stroke:none"
             d="m 0,0 c -0.065,0.06 -0.171,0.06 -0.229,0 -0.066,-0.065 -0.066,-0.17 0,-0.235 L -0.118,-0.347 0,-0.235 C 0.065,-0.17 0.065,-0.065 0,0 m 0.255,-2.756 0.321,0.321 -0.694,0.694 -0.32,-0.321 c -0.191,-0.189 -0.191,-0.503 0,-0.694 0.189,-0.189 0.503,-0.189 0.693,0 M 0.693,-0.929 0.576,-1.04 1.27,-1.741 1.865,-1.146 2.56,-1.839 1.97,-2.435 2.56,-3.023 1.865,-3.718 1.27,-3.129 0.949,-3.449 c -0.576,-0.576 -1.506,-0.576 -2.082,0 -0.576,0.576 -0.576,1.506 0,2.081 l 0.321,0.328 -0.111,0.111 c -0.452,0.451 -0.452,1.171 0,1.623 0.444,0.446 1.171,0.446 1.616,0 0.446,-0.452 0.446,-1.172 0,-1.623" /></g><g
           transform="translate(335.4399,812.1289)"
           id="g112"><path
             id="path114"
             style="fill:#3f4096;fill-opacity:1;fill-rule:nonzero;stroke:none"
             d="M 0,0 H 3.601 V -0.982 H 0.981 V -2.455 H 2.945 V -3.437 H 0.981 V -4.91 H 0 Z" /></g><g
           transform="translate(343.3306,809.5107)"
           id="g116"><path
             id="path118"
             style="fill:#3f4096;fill-opacity:1;fill-rule:nonzero;stroke:none"
             d="M 0,0 C 0.452,0 0.818,0.366 0.818,0.817 0.818,1.27 0.452,1.636 0,1.636 H -0.818 V 0 Z M 1.983,-2.292 H 0.812 l -0.858,1.31 h -0.772 v -1.31 H -1.8 v 4.91 H 0 c 0.995,0 1.801,-0.806 1.801,-1.801 0,-0.647 -0.341,-1.211 -0.852,-1.531 z" /></g><path
           id="path120"
           style="fill:#3f4096;fill-opacity:1;fill-rule:nonzero;stroke:none"
           d="m 348.82,807.219 h -0.981 v 4.91 h 0.981 z" /><g
           transform="translate(351.7026,812.1289)"
           id="g122"><path
             id="path124"
             style="fill:#3f4096;fill-opacity:1;fill-rule:nonzero;stroke:none"
             d="M 0,0 H 3.601 V -0.982 H 0.981 V -2.455 H 2.945 V -3.437 H 0.981 v -0.491 h 2.62 V -4.91 H 0 Z" /></g><g
           transform="translate(360.7397,808.6924)"
           id="g126"><path
             id="path128"
             style="fill:#3f4096;fill-opacity:1;fill-rule:nonzero;stroke:none"
             d="m 0,0 c 0,-0.812 -0.661,-1.474 -1.473,-1.474 -0.7,0 -1.283,0.485 -1.433,1.14 L -1.964,0 c 0,-0.269 0.223,-0.491 0.491,-0.491 0.269,0 0.492,0.222 0.492,0.491 0,0.268 -0.223,0.49 -0.492,0.49 -0.811,0 -1.472,0.661 -1.472,1.474 0,0.811 0.661,1.473 1.472,1.473 0.701,0 1.284,-0.485 1.434,-1.14 L -0.981,1.964 c 0,0.267 -0.223,0.49 -0.492,0.49 -0.268,0 -0.491,-0.223 -0.491,-0.49 0,-0.269 0.223,-0.491 0.491,-0.491 C -0.661,1.473 0,0.812 0,0" /></g><g
           transform="translate(359.814,820.665)"
           id="g130"><path
             id="path132"
             style="fill:#e8483d;fill-opacity:1;fill-rule:nonzero;stroke:none"
             d="m 0,0 h -76.166 c -0.028,0 -0.054,-0.007 -0.082,-0.008 -1.481,-0.079 -10.427,-0.985 -10.427,-11.198 0,-1.105 0.896,-2 2,-2 1.105,0 2,0.895 2,2 0,6.927 5.971,7.198 6.64,7.206 L 0,-4 c 1.104,0 2,0.896 2,2 0,1.104 -0.896,2 -2,2" /></g><g
           transform="translate(454.5586,839.9121)"
           id="g134"><path
             id="path136"
             style="fill:#3f4096;fill-opacity:1;fill-rule:nonzero;stroke:none"
             d="m 0,0 c 0.021,0.18 0.199,0.318 0.359,0.318 h 0.319 c 0.099,0 0.277,-0.079 0.338,-0.199 l 4.615,-8.596 h 0.041 l 4.615,8.596 c 0.061,0.12 0.24,0.199 0.338,0.199 h 0.318 c 0.161,0 0.34,-0.138 0.36,-0.318 l 2.248,-13.371 c 0.039,-0.259 -0.139,-0.438 -0.379,-0.438 h -2.348 c -0.178,0 -0.357,0.16 -0.377,0.319 L 9.551,-7.342 H 9.512 L 6.168,-13.789 C 6.109,-13.908 5.93,-14.008 5.83,-14.008 H 5.473 c -0.119,0 -0.28,0.1 -0.338,0.219 L 1.771,-7.342 H 1.732 L 0.855,-13.49 c -0.019,-0.159 -0.177,-0.319 -0.376,-0.319 h -2.348 c -0.24,0 -0.418,0.179 -0.379,0.438 z" /></g><g
           transform="translate(476.791,829.0879)"
           id="g138"><path
             id="path140"
             style="fill:#3f4096;fill-opacity:1;fill-rule:nonzero;stroke:none"
             d="M 0,0 C 2.189,0 3.98,1.791 3.98,3.96 3.98,6.148 2.189,7.959 0,7.959 -2.168,7.959 -3.959,6.148 -3.959,3.96 -3.959,1.791 -2.168,0 0,0 m 0,11.143 c 3.98,0 7.164,-3.204 7.164,-7.183 0,-3.98 -3.184,-7.144 -7.164,-7.144 -3.979,0 -7.143,3.164 -7.143,7.144 0,3.979 3.164,7.183 7.143,7.183" /></g><g
           transform="translate(486.168,839.6533)"
           id="g142"><path
             id="path144"
             style="fill:#3f4096;fill-opacity:1;fill-rule:nonzero;stroke:none"
             d="M 0,0 C 0,0.199 0.18,0.378 0.379,0.378 H 2.826 C 3.045,0.378 3.203,0.199 3.203,0 v -8.058 c 0,-1.393 1.035,-2.507 2.447,-2.507 1.434,0 2.489,1.114 2.489,2.507 V 0 c 0,0.199 0.158,0.378 0.377,0.378 h 2.447 c 0.199,0 0.379,-0.179 0.379,-0.378 v -8.218 c 0,-3.023 -2.547,-5.531 -5.692,-5.531 -3.123,0 -5.65,2.508 -5.65,5.531 z" /></g><g
           transform="translate(499.9219,827.9941)"
           id="g146"><path
             id="path148"
             style="fill:#3f4096;fill-opacity:1;fill-rule:nonzero;stroke:none"
             d="M 0,0 0.936,1.651 C 1.096,1.91 1.473,1.87 1.613,1.771 1.691,1.73 3.125,0.676 4.437,0.676 c 0.797,0 1.374,0.498 1.374,1.194 0,0.836 -0.696,1.473 -2.049,2.01 C 2.051,4.557 -0.1,5.89 -0.1,8.277 c 0,1.97 1.534,3.959 4.598,3.959 2.068,0 3.66,-1.054 4.258,-1.492 0.238,-0.139 0.199,-0.497 0.119,-0.637 L 7.859,8.575 C 7.721,8.356 7.363,8.178 7.184,8.316 7.004,8.416 5.553,9.511 4.338,9.511 3.623,9.511 3.084,9.033 3.084,8.496 3.084,7.76 3.682,7.202 5.254,6.565 6.807,5.949 9.273,4.735 9.273,2.029 9.273,-0.021 7.502,-2.09 4.578,-2.09 1.99,-2.09 0.559,-1.016 0.1,-0.558 -0.1,-0.358 -0.158,-0.279 0,0" /></g><g
           transform="translate(510.8301,827.9941)"
           id="g150"><path
             id="path152"
             style="fill:#3f4096;fill-opacity:1;fill-rule:nonzero;stroke:none"
             d="M 0,0 0.936,1.651 C 1.094,1.91 1.473,1.87 1.611,1.771 1.691,1.73 3.123,0.676 4.437,0.676 c 0.795,0 1.374,0.498 1.374,1.194 0,0.836 -0.698,1.473 -2.051,2.01 -1.711,0.677 -3.86,2.01 -3.86,4.397 0,1.97 1.532,3.959 4.596,3.959 2.07,0 3.662,-1.054 4.258,-1.492 0.24,-0.139 0.199,-0.497 0.121,-0.637 L 7.859,8.575 C 7.721,8.356 7.361,8.178 7.184,8.316 7.004,8.416 5.551,9.511 4.338,9.511 3.621,9.511 3.084,9.033 3.084,8.496 3.084,7.76 3.682,7.202 5.252,6.565 6.805,5.949 9.271,4.735 9.271,2.029 9.271,-0.021 7.502,-2.09 4.576,-2.09 1.99,-2.09 0.557,-1.016 0.1,-0.558 -0.1,-0.358 -0.16,-0.279 0,0" /></g><g
           transform="translate(522.5332,839.6533)"
           id="g154"><path
             id="path156"
             style="fill:#3f4096;fill-opacity:1;fill-rule:nonzero;stroke:none"
             d="M 0,0 C 0,0.199 0.158,0.378 0.377,0.378 H 8.615 C 8.834,0.378 8.994,0.199 8.994,0 v -2.169 c 0,-0.198 -0.16,-0.378 -0.379,-0.378 H 3.104 v -2.467 h 4.537 c 0.199,0 0.377,-0.178 0.377,-0.378 v -2.169 c 0,-0.218 -0.178,-0.377 -0.377,-0.377 H 3.104 v -2.687 h 5.511 c 0.219,0 0.379,-0.179 0.379,-0.378 v -2.169 c 0,-0.199 -0.16,-0.378 -0.379,-0.378 H 0.377 C 0.158,-13.55 0,-13.371 0,-13.172 Z" /></g><g
           transform="translate(489.373,858.6631)"
           id="g158"><path
             id="path160"
             style="fill:#3f4096;fill-opacity:1;fill-rule:nonzero;stroke:none"
             d="M 0,0 C 0,0.199 0.158,0.378 0.377,0.378 H 8.615 C 8.834,0.378 8.994,0.199 8.994,0 v -2.169 c 0,-0.198 -0.16,-0.378 -0.379,-0.378 H 3.104 v -2.865 h 4.537 c 0.199,0 0.377,-0.179 0.377,-0.378 v -2.169 c 0,-0.198 -0.178,-0.378 -0.377,-0.378 H 3.104 v -4.835 c 0,-0.199 -0.18,-0.378 -0.377,-0.378 H 0.377 C 0.158,-13.55 0,-13.371 0,-13.172 Z" /></g><g
           transform="translate(500.5781,858.6631)"
           id="g162"><path
             id="path164"
             style="fill:#3f4096;fill-opacity:1;fill-rule:nonzero;stroke:none"
             d="M 0,0 C 0,0.199 0.18,0.378 0.379,0.378 H 2.766 C 2.965,0.378 3.145,0.199 3.145,0 v -13.172 c 0,-0.199 -0.18,-0.378 -0.379,-0.378 H 0.379 C 0.18,-13.55 0,-13.371 0,-13.172 Z" /></g><g
           transform="translate(507.127,858.8828)"
           id="g166"><path
             id="path168"
             style="fill:#3f4096;fill-opacity:1;fill-rule:nonzero;stroke:none"
             d="m 0,0 c 0,0.198 0.18,0.357 0.379,0.357 h 0.496 l 7.939,-7.64 h 0.02 v 7.063 c 0,0.199 0.16,0.378 0.379,0.378 h 2.389 c 0.197,0 0.377,-0.179 0.377,-0.378 v -13.39 c 0,-0.2 -0.18,-0.359 -0.377,-0.359 h -0.319 c -0.06,0 -0.22,0.06 -0.26,0.1 L 3.164,-5.97 H 3.145 v -7.422 c 0,-0.199 -0.161,-0.378 -0.379,-0.378 H 0.398 c -0.199,0 -0.378,0.179 -0.378,0.378 z" /></g><g
           transform="translate(522.5332,858.6631)"
           id="g170"><path
             id="path172"
             style="fill:#3f4096;fill-opacity:1;fill-rule:nonzero;stroke:none"
             d="M 0,0 C 0,0.199 0.158,0.378 0.377,0.378 H 8.615 C 8.834,0.378 8.994,0.199 8.994,0 v -2.169 c 0,-0.198 -0.16,-0.378 -0.379,-0.378 H 3.104 v -2.467 h 4.537 c 0.199,0 0.377,-0.178 0.377,-0.378 v -2.169 c 0,-0.218 -0.178,-0.377 -0.377,-0.377 H 3.104 v -2.687 h 5.511 c 0.219,0 0.379,-0.179 0.379,-0.378 v -2.169 c 0,-0.199 -0.16,-0.378 -0.379,-0.378 H 0.377 C 0.158,-13.55 0,-13.371 0,-13.172 Z" /></g><g
           transform="translate(499.7344,874.6416)"
           id="g174"><path
             id="path176"
             style="fill:#3f4096;fill-opacity:1;fill-rule:nonzero;stroke:none"
             d="m 0,0 h -2.758 c -0.211,0 -0.365,0.174 -0.365,0.366 v 2.103 c 0,0.192 0.154,0.366 0.365,0.366 h 8.565 c 0.211,0 0.365,-0.174 0.365,-0.366 V 0.366 C 6.172,0.174 6.018,0 5.807,0 H 3.049 v -10.3 c 0,-0.192 -0.174,-0.366 -0.367,-0.366 H 0.367 C 0.174,-10.666 0,-10.492 0,-10.3 Z" /></g><g
           transform="translate(507.834,877.1104)"
           id="g178"><path
             id="path180"
             style="fill:#3f4096;fill-opacity:1;fill-rule:nonzero;stroke:none"
             d="M 0,0 C 0,0.192 0.172,0.366 0.365,0.366 H 2.66 C 2.873,0.366 3.027,0.192 3.027,0 V -4.86 H 8.543 V 0 c 0,0.192 0.154,0.366 0.367,0.366 h 2.295 c 0.193,0 0.367,-0.174 0.367,-0.366 v -12.769 c 0,-0.192 -0.174,-0.366 -0.367,-0.366 H 8.91 c -0.213,0 -0.367,0.174 -0.367,0.366 v 5.074 H 3.027 v -5.074 c 0,-0.192 -0.154,-0.366 -0.367,-0.366 H 0.365 C 0.172,-13.135 0,-12.961 0,-12.769 Z" /></g><g
           transform="translate(522.7207,877.1104)"
           id="g182"><path
             id="path184"
             style="fill:#3f4096;fill-opacity:1;fill-rule:nonzero;stroke:none"
             d="M 0,0 C 0,0.192 0.154,0.366 0.365,0.366 H 8.35 C 8.563,0.366 8.717,0.192 8.717,0 v -2.103 c 0,-0.192 -0.154,-0.366 -0.367,-0.366 H 3.008 V -4.86 h 4.398 c 0.192,0 0.365,-0.174 0.365,-0.367 v -2.102 c 0,-0.212 -0.173,-0.366 -0.365,-0.366 H 3.008 V -10.3 H 8.35 c 0.213,0 0.367,-0.173 0.367,-0.366 v -2.103 c 0,-0.192 -0.154,-0.366 -0.367,-0.366 H 0.365 C 0.154,-13.135 0,-12.961 0,-12.769 Z" /></g><g
           transform="translate(528.0879,888.1997)"
           id="g186"><path
             id="path188"
             style="fill:#e8483d;fill-opacity:1;fill-rule:nonzero;stroke:none"
             d="m 0,0 c 0,-1.259 -1.025,-2.282 -2.283,-2.282 h -20.742 l -0.145,-0.005 c -0.033,-0.003 -0.258,-0.016 -0.633,-0.016 -1.715,0 -7.66,0.307 -12.154,4.262 -9.541,8.394 -25.266,9.3 -31.582,9.3 -1.295,0 -2.145,-0.038 -2.393,-0.052 -1.236,0.025 -2.234,1.039 -2.234,2.281 v 4.969 h 13.342 c 4.773,0 7.625,2.785 7.625,7.451 h -4 c 0,-2.419 -1.084,-3.451 -3.625,-3.451 h -13.342 v 8.777 c 0,1.258 1.023,2.282 2.281,2.282 H -2.283 C -1.025,33.516 0,32.492 0,31.234 Z m -2.283,37.516 h -5.854 v 3.755 c 0,1.073 0.276,1.848 0.844,2.373 0.881,0.811 2.381,0.981 3.186,0.981 h 0.005 l 0.518,-0.021 v 10e-4 c 2.721,0.032 4.859,0.892 6.354,2.558 2.228,2.483 2.107,5.78 2.044,6.542 v 11.49 c 0,1.105 -0.896,2 -2,2 -1.105,0 -2,-0.895 -2,-2 V 53.614 l 0.01,-0.202 c 0.002,-0.022 0.196,-2.23 -1.047,-3.594 -0.701,-0.771 -1.816,-1.178 -3.314,-1.212 -0.598,0.041 -2.634,0.092 -4.6,-0.799 v 17.388 c 0,1.105 -0.896,2 -2,2 -1.105,0 -2,-0.895 -2,-2 V 41.271 37.516 h -8.951 v 3.755 23.924 c 0,1.105 -0.896,2 -2,2 -1.105,0 -2,-0.895 -2,-2 v -17.39 c -2.001,0.907 -4.076,0.837 -4.633,0.799 h -1.984 v 16.591 c 0,1.105 -0.897,2 -2,2 -1.106,0 -2,-0.895 -2,-2 V 48.604 h -9.408 v 16.591 c 0,1.105 -0.897,2 -2,2 -1.106,0 -2,-0.895 -2,-2 V 48.604 h -9.41 v 16.591 c 0,1.105 -0.897,2 -2,2 -1.106,0 -2,-0.895 -2,-2 V 48.604 h -4.704 c -1.601,0 -2.785,0.409 -3.517,1.214 -1.24,1.364 -1.049,3.572 -1.047,3.58 l 0.012,11.797 c 0,1.105 -0.897,2 -2,2 -1.106,0 -2,-0.895 -2,-2 v -11.49 c -0.063,-0.762 -0.184,-4.059 2.043,-6.542 1.523,-1.697 3.713,-2.559 6.509,-2.559 h 37.586 l 0.174,0.008 c 0.633,0.054 2.506,-0.02 3.533,-0.968 0.569,-0.525 0.846,-1.3 0.846,-2.373 v -3.755 h -44.797 c -3.465,0 -6.281,-2.818 -6.281,-6.282 V 13.488 c 0,-3.464 2.816,-6.281 6.281,-6.281 l 0.117,0.004 c 0.01,0 0.84,0.048 2.229,0.048 5.863,0 20.422,-0.809 28.939,-8.304 5.395,-4.746 12.145,-5.258 14.797,-5.258 0.416,0 0.707,0.013 0.84,0.021 h 20.68 C 1.182,-6.282 4,-3.464 4,0 v 31.234 c 0,3.464 -2.818,6.282 -6.283,6.282" /></g><g
           transform="translate(514.041,910.4351)"
           id="g190"><path
             id="path192"
             style="fill:#e8483d;fill-opacity:1;fill-rule:nonzero;stroke:none"
             d="M 0,0 C -1.533,-0.886 -3.676,-0.884 -5.205,0.002 -6.107,0.523 -7.18,1.583 -7.176,3.67 l -4,0.006 c -0.006,-3.072 1.44,-5.674 3.967,-7.136 1.377,-0.797 2.992,-1.195 4.607,-1.195 1.612,0 3.225,0.396 4.6,1.19 2.533,1.46 3.986,4.062 3.986,7.138 h -4 C 1.984,1.582 0.906,0.521 0,0" /></g><g
           transform="translate(529.9004,802.6934)"
           id="g194"><path
             id="path196"
             style="fill:#e8483d;fill-opacity:1;fill-rule:nonzero;stroke:none"
             d="m 0,0 h -76.166 c -1.105,0 -2,-0.896 -2,-2 v -15.591 c 0,-1.104 0.895,-2 2,-2 1.103,0 2,0.896 2,2 V -4 h 10.225 v -13.591 c 0,-1.104 0.894,-2 2,-2 1.103,0 2,0.896 2,2 V -4 h 45.804 v -13.553 c 0,-1.104 0.895,-2 2,-2 1.104,0 2,0.896 2,2 V -4 H -2 v -13.515 c 0,-1.104 0.895,-2 2,-2 1.104,0 2,0.896 2,2 L 2,-2 C 2,-0.896 1.104,0 0,0" /></g><g
           transform="translate(455.957,810.165)"
           id="g198"><path
             id="path200"
             style="fill:#004cbc;fill-opacity:1;fill-rule:nonzero;stroke:none"
             d="M 0,0 C 0.268,0 0.49,0.223 0.49,0.491 0.49,0.759 0.268,0.981 0,0.981 H -1.475 V 0 Z m 0.326,-1.964 c 0.27,0 0.49,0.223 0.49,0.491 0,0.268 -0.22,0.491 -0.49,0.491 H -1.48 v -0.982 z m 1.473,0.491 c 0,-0.812 -0.66,-1.473 -1.473,-1.473 h -2.781 v 4.91 H 0 c 0.811,0 1.473,-0.661 1.473,-1.473 0,-0.295 -0.086,-0.57 -0.237,-0.805 0.34,-0.269 0.563,-0.688 0.563,-1.159" /></g><g
           transform="translate(464.3711,809.3467)"
           id="g202"><path
             id="path204"
             style="fill:#004cbc;fill-opacity:1;fill-rule:nonzero;stroke:none"
             d="m 0,0 c 0,-1.179 -0.955,-2.128 -2.127,-2.128 -1.178,0 -2.127,0.949 -2.127,2.128 v 2.782 h 0.981 V 0 c 0,-0.635 0.511,-1.146 1.146,-1.146 0.635,0 1.145,0.511 1.145,1.146 V 2.782 H 0 Z" /></g><g
           transform="translate(469.5801,810.165)"
           id="g206"><path
             id="path208"
             style="fill:#004cbc;fill-opacity:1;fill-rule:nonzero;stroke:none"
             d="M 0,0 C 0.268,0 0.49,0.223 0.49,0.491 0.49,0.759 0.268,0.981 0,0.981 H -1.475 V 0 Z m 0.326,-1.964 c 0.27,0 0.49,0.223 0.49,0.491 0,0.268 -0.22,0.491 -0.49,0.491 H -1.48 v -0.982 z m 1.473,0.491 c 0,-0.812 -0.66,-1.473 -1.473,-1.473 h -2.781 v 4.91 H 0 c 0.811,0 1.473,-0.661 1.473,-1.473 0,-0.295 -0.086,-0.57 -0.237,-0.805 0.34,-0.269 0.563,-0.688 0.563,-1.159" /></g><g
           transform="translate(476.3262,810.165)"
           id="g210"><path
             id="path212"
             style="fill:#004cbc;fill-opacity:1;fill-rule:nonzero;stroke:none"
             d="M 0,0 C 0.268,0 0.49,0.223 0.49,0.491 0.49,0.759 0.268,0.981 0,0.981 H -1.475 V 0 Z m 0.326,-1.964 c 0.27,0 0.49,0.223 0.49,0.491 0,0.268 -0.22,0.491 -0.49,0.491 H -1.48 v -0.982 z m 1.473,0.491 c 0,-0.812 -0.66,-1.473 -1.473,-1.473 h -2.781 v 4.91 H 0 c 0.811,0 1.473,-0.661 1.473,-1.473 0,-0.295 -0.086,-0.57 -0.237,-0.805 0.34,-0.269 0.563,-0.688 0.563,-1.159" /></g><g
           transform="translate(480.6172,812.1289)"
           id="g214"><path
             id="path216"
             style="fill:#004cbc;fill-opacity:1;fill-rule:nonzero;stroke:none"
             d="M 0,0 H 0.98 V -3.928 H 3.6 V -4.91 H 0 Z" /></g><g
           transform="translate(485.2012,812.1289)"
           id="g218"><path
             id="path220"
             style="fill:#004cbc;fill-opacity:1;fill-rule:nonzero;stroke:none"
             d="M 0,0 H 1.16 L 2.463,-2.082 3.771,0 H 4.93 L 2.953,-3.148 V -4.91 H 1.971 v 1.762 z" /></g><g
           transform="translate(496.9375,811.1006)"
           id="g222"><path
             id="path224"
             style="fill:#004cbc;fill-opacity:1;fill-rule:nonzero;stroke:none"
             d="m 0,0 c -0.064,0.06 -0.17,0.06 -0.229,0 -0.066,-0.065 -0.066,-0.17 0,-0.235 L -0.117,-0.347 0,-0.235 C 0.066,-0.17 0.066,-0.065 0,0 m 0.256,-2.756 0.32,0.321 -0.693,0.694 -0.32,-0.321 c -0.192,-0.189 -0.192,-0.503 0,-0.694 0.189,-0.189 0.503,-0.189 0.693,0 M 0.693,-0.929 0.576,-1.04 1.27,-1.741 1.865,-1.146 2.561,-1.839 1.971,-2.435 2.561,-3.023 1.865,-3.718 1.27,-3.129 0.949,-3.449 c -0.576,-0.576 -1.506,-0.576 -2.082,0 -0.576,0.576 -0.576,1.506 0,2.081 l 0.322,0.328 -0.111,0.111 c -0.453,0.451 -0.453,1.171 0,1.623 0.443,0.446 1.17,0.446 1.615,0 0.446,-0.452 0.446,-1.172 0,-1.623" /></g><g
           transform="translate(505.5254,812.1289)"
           id="g226"><path
             id="path228"
             style="fill:#004cbc;fill-opacity:1;fill-rule:nonzero;stroke:none"
             d="M 0,0 H 3.602 V -0.982 H 0.982 V -2.455 H 2.945 V -3.437 H 0.982 V -4.91 H 0 Z" /></g><g
           transform="translate(513.416,809.5107)"
           id="g230"><path
             id="path232"
             style="fill:#004cbc;fill-opacity:1;fill-rule:nonzero;stroke:none"
             d="M 0,0 C 0.453,0 0.818,0.366 0.818,0.817 0.818,1.27 0.453,1.636 0,1.636 H -0.818 V 0 Z M 1.984,-2.292 H 0.812 l -0.857,1.31 h -0.773 v -1.31 h -0.981 v 4.91 H 0 c 0.996,0 1.801,-0.806 1.801,-1.801 0,-0.647 -0.34,-1.211 -0.852,-1.531 z" /></g><path
           id="path234"
           style="fill:#004cbc;fill-opacity:1;fill-rule:nonzero;stroke:none"
           d="m 518.906,807.219 h -0.982 v 4.91 h 0.982 z" /><g
           transform="translate(521.7891,812.1289)"
           id="g236"><path
             id="path238"
             style="fill:#004cbc;fill-opacity:1;fill-rule:nonzero;stroke:none"
             d="M 0,0 H 3.6 V -0.982 H 0.98 V -2.455 H 2.945 V -3.437 H 0.98 V -3.928 H 3.6 V -4.91 H 0 Z" /></g><g
           transform="translate(530.8262,808.6924)"
           id="g240"><path
             id="path242"
             style="fill:#004cbc;fill-opacity:1;fill-rule:nonzero;stroke:none"
             d="m 0,0 c 0,-0.812 -0.662,-1.474 -1.473,-1.474 -0.701,0 -1.283,0.485 -1.433,1.14 L -1.965,0 c 0,-0.269 0.223,-0.491 0.492,-0.491 0.268,0 0.491,0.222 0.491,0.491 0,0.268 -0.223,0.49 -0.491,0.49 -0.812,0 -1.472,0.661 -1.472,1.474 0,0.811 0.66,1.473 1.472,1.473 0.7,0 1.284,-0.485 1.434,-1.14 L -0.982,1.964 c 0,0.267 -0.223,0.49 -0.491,0.49 -0.269,0 -0.492,-0.223 -0.492,-0.49 0,-0.269 0.223,-0.491 0.492,-0.491 C -0.662,1.473 0,0.812 0,0" /></g><g
           transform="translate(529.9004,820.665)"
           id="g244"><path
             id="path246"
             style="fill:#e8483d;fill-opacity:1;fill-rule:nonzero;stroke:none"
             d="m 0,0 h -76.166 c -0.028,0 -0.054,-0.007 -0.081,-0.008 -1.482,-0.079 -10.429,-0.985 -10.429,-11.198 0,-1.105 0.896,-2 2,-2 1.105,0 2,0.895 2,2 0,6.927 5.972,7.198 6.641,7.206 L 0,-4 c 1.104,0 2,0.896 2,2 0,1.104 -0.896,2 -2,2" /></g><g
           transform="translate(454.5586,374.2061)"
           id="g248"><path
             id="path250"
             style="fill:#373535;fill-opacity:1;fill-rule:nonzero;stroke:none"
             d="m 0,0 c 0.021,0.18 0.199,0.318 0.359,0.318 h 0.319 c 0.099,0 0.277,-0.08 0.338,-0.199 l 4.615,-8.596 h 0.041 l 4.615,8.596 c 0.061,0.119 0.24,0.199 0.338,0.199 h 0.318 c 0.161,0 0.34,-0.138 0.36,-0.318 l 2.248,-13.371 c 0.039,-0.26 -0.139,-0.438 -0.379,-0.438 h -2.348 c -0.178,0 -0.357,0.159 -0.377,0.319 L 9.551,-7.342 H 9.512 L 6.168,-13.789 C 6.109,-13.908 5.93,-14.008 5.83,-14.008 H 5.473 c -0.119,0 -0.28,0.1 -0.338,0.219 L 1.771,-7.342 H 1.732 L 0.855,-13.49 c -0.019,-0.16 -0.177,-0.319 -0.376,-0.319 h -2.348 c -0.24,0 -0.418,0.178 -0.379,0.438 z" /></g><g
           transform="translate(476.791,363.3818)"
           id="g252"><path
             id="path254"
             style="fill:#373535;fill-opacity:1;fill-rule:nonzero;stroke:none"
             d="m 0,0 c 2.189,0 3.98,1.791 3.98,3.959 0,2.189 -1.791,4 -3.98,4 -2.168,0 -3.959,-1.811 -3.959,-4 C -3.959,1.791 -2.168,0 0,0 m 0,11.143 c 3.98,0 7.164,-3.204 7.164,-7.184 0,-3.979 -3.184,-7.143 -7.164,-7.143 -3.979,0 -7.143,3.164 -7.143,7.143 0,3.98 3.164,7.184 7.143,7.184" /></g><g
           transform="translate(486.168,373.9463)"
           id="g256"><path
             id="path258"
             style="fill:#373535;fill-opacity:1;fill-rule:nonzero;stroke:none"
             d="M 0,0 C 0,0.199 0.18,0.379 0.379,0.379 H 2.826 C 3.045,0.379 3.203,0.199 3.203,0 v -8.057 c 0,-1.394 1.035,-2.507 2.447,-2.507 1.434,0 2.489,1.113 2.489,2.507 V 0 c 0,0.199 0.158,0.379 0.377,0.379 h 2.447 c 0.199,0 0.379,-0.18 0.379,-0.379 v -8.217 c 0,-3.023 -2.547,-5.531 -5.692,-5.531 -3.123,0 -5.65,2.508 -5.65,5.531 z" /></g><g
           transform="translate(499.9219,362.2881)"
           id="g260"><path
             id="path262"
             style="fill:#373535;fill-opacity:1;fill-rule:nonzero;stroke:none"
             d="m 0,0 0.936,1.65 c 0.16,0.26 0.537,0.219 0.677,0.12 0.078,-0.04 1.512,-1.094 2.824,-1.094 0.797,0 1.374,0.498 1.374,1.193 0,0.836 -0.696,1.473 -2.049,2.01 -1.711,0.678 -3.862,2.01 -3.862,4.398 0,1.969 1.534,3.959 4.598,3.959 2.068,0 3.66,-1.054 4.258,-1.492 0.238,-0.139 0.199,-0.498 0.119,-0.637 L 7.859,8.574 C 7.721,8.355 7.363,8.178 7.184,8.316 7.004,8.416 5.553,9.51 4.338,9.51 3.623,9.51 3.084,9.033 3.084,8.496 3.084,7.76 3.682,7.201 5.254,6.564 6.807,5.949 9.273,4.734 9.273,2.029 9.273,-0.021 7.502,-2.09 4.578,-2.09 1.99,-2.09 0.559,-1.016 0.1,-0.559 -0.1,-0.359 -0.158,-0.279 0,0" /></g><g
           transform="translate(510.8301,362.2881)"
           id="g264"><path
             id="path266"
             style="fill:#373535;fill-opacity:1;fill-rule:nonzero;stroke:none"
             d="m 0,0 0.936,1.65 c 0.158,0.26 0.537,0.219 0.675,0.12 0.08,-0.04 1.512,-1.094 2.826,-1.094 0.795,0 1.374,0.498 1.374,1.193 0,0.836 -0.698,1.473 -2.051,2.01 -1.711,0.678 -3.86,2.01 -3.86,4.398 0,1.969 1.532,3.959 4.596,3.959 2.07,0 3.662,-1.054 4.258,-1.492 0.24,-0.139 0.199,-0.498 0.121,-0.637 L 7.859,8.574 C 7.721,8.355 7.361,8.178 7.184,8.316 7.004,8.416 5.551,9.51 4.338,9.51 3.621,9.51 3.084,9.033 3.084,8.496 3.084,7.76 3.682,7.201 5.252,6.564 6.805,5.949 9.271,4.734 9.271,2.029 9.271,-0.021 7.502,-2.09 4.576,-2.09 1.99,-2.09 0.557,-1.016 0.1,-0.559 -0.1,-0.359 -0.16,-0.279 0,0" /></g><g
           transform="translate(522.5332,373.9463)"
           id="g268"><path
             id="path270"
             style="fill:#373535;fill-opacity:1;fill-rule:nonzero;stroke:none"
             d="M 0,0 C 0,0.199 0.158,0.379 0.377,0.379 H 8.615 C 8.834,0.379 8.994,0.199 8.994,0 v -2.168 c 0,-0.199 -0.16,-0.379 -0.379,-0.379 H 3.104 v -2.467 h 4.537 c 0.199,0 0.377,-0.177 0.377,-0.377 v -2.17 c 0,-0.218 -0.178,-0.376 -0.377,-0.376 H 3.104 v -2.688 h 5.511 c 0.219,0 0.379,-0.178 0.379,-0.377 v -2.17 c 0,-0.199 -0.16,-0.377 -0.379,-0.377 H 0.377 C 0.158,-13.549 0,-13.371 0,-13.172 Z" /></g><g
           transform="translate(489.373,392.9561)"
           id="g272"><path
             id="path274"
             style="fill:#373535;fill-opacity:1;fill-rule:nonzero;stroke:none"
             d="M 0,0 C 0,0.199 0.158,0.379 0.377,0.379 H 8.615 C 8.834,0.379 8.994,0.199 8.994,0 v -2.168 c 0,-0.199 -0.16,-0.379 -0.379,-0.379 H 3.104 v -2.865 h 4.537 c 0.199,0 0.377,-0.178 0.377,-0.377 v -2.17 c 0,-0.197 -0.178,-0.377 -0.377,-0.377 H 3.104 v -4.836 c 0,-0.199 -0.18,-0.377 -0.377,-0.377 H 0.377 C 0.158,-13.549 0,-13.371 0,-13.172 Z" /></g><g
           transform="translate(500.5781,392.9561)"
           id="g276"><path
             id="path278"
             style="fill:#373535;fill-opacity:1;fill-rule:nonzero;stroke:none"
             d="M 0,0 C 0,0.199 0.18,0.379 0.379,0.379 H 2.766 C 2.965,0.379 3.145,0.199 3.145,0 v -13.172 c 0,-0.199 -0.18,-0.377 -0.379,-0.377 H 0.379 C 0.18,-13.549 0,-13.371 0,-13.172 Z" /></g><g
           transform="translate(507.127,393.1768)"
           id="g280"><path
             id="path282"
             style="fill:#373535;fill-opacity:1;fill-rule:nonzero;stroke:none"
             d="m 0,0 c 0,0.197 0.18,0.357 0.379,0.357 h 0.496 l 7.939,-7.64 h 0.02 v 7.062 c 0,0.2 0.16,0.379 0.379,0.379 h 2.389 c 0.197,0 0.377,-0.179 0.377,-0.379 v -13.39 c 0,-0.2 -0.18,-0.358 -0.377,-0.358 h -0.319 c -0.06,0 -0.22,0.059 -0.26,0.1 L 3.164,-5.971 H 3.145 v -7.422 c 0,-0.199 -0.161,-0.377 -0.379,-0.377 H 0.398 c -0.199,0 -0.378,0.178 -0.378,0.377 z" /></g><g
           transform="translate(522.5332,392.9561)"
           id="g284"><path
             id="path286"
             style="fill:#373535;fill-opacity:1;fill-rule:nonzero;stroke:none"
             d="M 0,0 C 0,0.199 0.158,0.379 0.377,0.379 H 8.615 C 8.834,0.379 8.994,0.199 8.994,0 v -2.168 c 0,-0.199 -0.16,-0.379 -0.379,-0.379 H 3.104 v -2.467 h 4.537 c 0.199,0 0.377,-0.177 0.377,-0.377 v -2.17 c 0,-0.218 -0.178,-0.376 -0.377,-0.376 H 3.104 v -2.688 h 5.511 c 0.219,0 0.379,-0.178 0.379,-0.377 v -2.17 c 0,-0.199 -0.16,-0.377 -0.379,-0.377 H 0.377 C 0.158,-13.549 0,-13.371 0,-13.172 Z" /></g><g
           transform="translate(499.7344,408.9346)"
           id="g288"><path
             id="path290"
             style="fill:#373535;fill-opacity:1;fill-rule:nonzero;stroke:none"
             d="m 0,0 h -2.758 c -0.211,0 -0.365,0.174 -0.365,0.367 v 2.102 c 0,0.193 0.154,0.367 0.365,0.367 h 8.565 c 0.211,0 0.365,-0.174 0.365,-0.367 V 0.367 C 6.172,0.174 6.018,0 5.807,0 H 3.049 v -10.299 c 0,-0.193 -0.174,-0.367 -0.367,-0.367 H 0.367 C 0.174,-10.666 0,-10.492 0,-10.299 Z" /></g><g
           transform="translate(507.834,411.4033)"
           id="g292"><path
             id="path294"
             style="fill:#373535;fill-opacity:1;fill-rule:nonzero;stroke:none"
             d="M 0,0 C 0,0.193 0.172,0.367 0.365,0.367 H 2.66 C 2.873,0.367 3.027,0.193 3.027,0 V -4.859 H 8.543 V 0 c 0,0.193 0.154,0.367 0.367,0.367 h 2.295 c 0.193,0 0.367,-0.174 0.367,-0.367 v -12.768 c 0,-0.193 -0.174,-0.367 -0.367,-0.367 H 8.91 c -0.213,0 -0.367,0.174 -0.367,0.367 v 5.073 H 3.027 v -5.073 c 0,-0.193 -0.154,-0.367 -0.367,-0.367 H 0.365 C 0.172,-13.135 0,-12.961 0,-12.768 Z" /></g><g
           transform="translate(522.7207,411.4033)"
           id="g296"><path
             id="path298"
             style="fill:#373535;fill-opacity:1;fill-rule:nonzero;stroke:none"
             d="M 0,0 C 0,0.193 0.154,0.367 0.365,0.367 H 8.35 C 8.563,0.367 8.717,0.193 8.717,0 v -2.102 c 0,-0.193 -0.154,-0.367 -0.367,-0.367 H 3.008 v -2.39 h 4.398 c 0.192,0 0.365,-0.174 0.365,-0.368 v -2.101 c 0,-0.213 -0.173,-0.367 -0.365,-0.367 H 3.008 v -2.604 H 8.35 c 0.213,0 0.367,-0.174 0.367,-0.367 v -2.102 c 0,-0.193 -0.154,-0.367 -0.367,-0.367 H 0.365 C 0.154,-13.135 0,-12.961 0,-12.768 Z" /></g><g
           transform="translate(528.0879,422.4941)"
           id="g300"><path
             id="path302"
             style="fill:#373535;fill-opacity:1;fill-rule:nonzero;stroke:none"
             d="m 0,0 c 0,-1.26 -1.025,-2.283 -2.283,-2.283 h -20.742 l -0.145,-0.004 c -0.033,-0.004 -0.258,-0.016 -0.633,-0.016 -1.715,0 -7.66,0.307 -12.154,4.262 -9.541,8.393 -25.266,9.299 -31.582,9.299 -1.295,0 -2.145,-0.037 -2.393,-0.051 -1.236,0.025 -2.234,1.039 -2.234,2.281 v 4.969 h 13.342 c 4.773,0 7.625,2.785 7.625,7.451 h -4 c 0,-2.42 -1.084,-3.451 -3.625,-3.451 h -13.342 v 8.777 c 0,1.258 1.023,2.282 2.281,2.282 H -2.283 C -1.025,33.516 0,32.492 0,31.234 Z m -2.283,37.516 h -5.854 v 3.755 c 0,1.073 0.276,1.848 0.844,2.372 0.881,0.812 2.381,0.982 3.186,0.982 h 0.005 l 0.518,-0.021 v 10e-4 c 2.721,0.032 4.859,0.891 6.354,2.557 2.228,2.483 2.107,5.781 2.044,6.543 v 11.49 c 0,1.104 -0.896,2 -2,2 -1.105,0 -2,-0.896 -2,-2 V 53.613 l 0.01,-0.201 c 0.002,-0.023 0.196,-2.23 -1.047,-3.594 -0.701,-0.771 -1.816,-1.179 -3.314,-1.213 -0.598,0.041 -2.634,0.092 -4.6,-0.798 v 17.388 c 0,1.104 -0.896,2 -2,2 -1.105,0 -2,-0.896 -2,-2 V 41.271 37.516 h -8.951 v 3.755 23.924 c 0,1.104 -0.896,2 -2,2 -1.105,0 -2,-0.896 -2,-2 V 47.804 c -2.001,0.907 -4.076,0.837 -4.633,0.8 h -1.984 v 16.591 c 0,1.104 -0.897,2 -2,2 -1.106,0 -2,-0.896 -2,-2 V 48.604 h -9.408 v 16.591 c 0,1.104 -0.897,2 -2,2 -1.106,0 -2,-0.896 -2,-2 V 48.604 h -9.41 v 16.591 c 0,1.104 -0.897,2 -2,2 -1.106,0 -2,-0.896 -2,-2 V 48.604 h -4.704 c -1.601,0 -2.785,0.408 -3.517,1.214 -1.24,1.364 -1.049,3.571 -1.047,3.58 l 0.012,11.797 c 0,1.104 -0.897,2 -2,2 -1.106,0 -2,-0.896 -2,-2 v -11.49 c -0.063,-0.762 -0.184,-4.059 2.043,-6.543 1.523,-1.697 3.713,-2.558 6.509,-2.558 h 37.586 l 0.174,0.007 c 0.633,0.055 2.506,-0.019 3.533,-0.968 0.569,-0.524 0.846,-1.299 0.846,-2.372 v -3.755 h -44.797 c -3.465,0 -6.281,-2.819 -6.281,-6.282 V 13.488 c 0,-3.465 2.816,-6.281 6.281,-6.281 l 0.117,0.004 c 0.01,0 0.84,0.047 2.229,0.047 5.863,0 20.422,-0.809 28.939,-8.303 5.395,-4.746 12.145,-5.258 14.797,-5.258 0.416,0 0.707,0.012 0.84,0.02 h 20.68 C 1.182,-6.283 4,-3.465 4,0 v 31.234 c 0,3.463 -2.818,6.282 -6.283,6.282" /></g><g
           transform="translate(514.041,444.7285)"
           id="g304"><path
             id="path306"
             style="fill:#373535;fill-opacity:1;fill-rule:nonzero;stroke:none"
             d="M 0,0 C -1.533,-0.885 -3.676,-0.883 -5.205,0.002 -6.107,0.523 -7.18,1.584 -7.176,3.67 l -4,0.006 c -0.006,-3.072 1.44,-5.674 3.967,-7.135 1.377,-0.797 2.992,-1.195 4.607,-1.195 1.612,0 3.225,0.396 4.6,1.189 2.533,1.461 3.986,4.063 3.986,7.139 h -4 C 1.984,1.582 0.906,0.521 0,0" /></g><g
           transform="translate(529.9004,336.9863)"
           id="g308"><path
             id="path310"
             style="fill:#373535;fill-opacity:1;fill-rule:nonzero;stroke:none"
             d="m 0,0 h -76.166 c -1.105,0 -2,-0.895 -2,-2 v -15.59 c 0,-1.105 0.895,-2 2,-2 1.103,0 2,0.895 2,2 V -4 h 10.225 v -13.59 c 0,-1.105 0.894,-2 2,-2 1.103,0 2,0.895 2,2 V -4 h 45.804 v -13.553 c 0,-1.103 0.895,-2 2,-2 1.104,0 2,0.897 2,2 V -4 H -2 v -13.514 c 0,-1.105 0.895,-2 2,-2 1.104,0 2,0.895 2,2 L 2,-2 C 2,-0.895 1.104,0 0,0" /></g><g
           transform="translate(455.957,344.458)"
           id="g312"><path
             id="path314"
             style="fill:#373535;fill-opacity:1;fill-rule:nonzero;stroke:none"
             d="M 0,0 C 0.268,0 0.49,0.223 0.49,0.492 0.49,0.76 0.268,0.982 0,0.982 H -1.475 V 0 Z m 0.326,-1.963 c 0.27,0 0.49,0.223 0.49,0.49 0,0.268 -0.22,0.491 -0.49,0.491 H -1.48 v -0.981 z m 1.473,0.49 c 0,-0.812 -0.66,-1.472 -1.473,-1.472 h -2.781 v 4.91 H 0 c 0.811,0 1.473,-0.662 1.473,-1.473 0,-0.295 -0.086,-0.57 -0.237,-0.806 0.34,-0.268 0.563,-0.688 0.563,-1.159" /></g><g
           transform="translate(464.3711,343.6396)"
           id="g316"><path
             id="path318"
             style="fill:#373535;fill-opacity:1;fill-rule:nonzero;stroke:none"
             d="m 0,0 c 0,-1.178 -0.955,-2.127 -2.127,-2.127 -1.178,0 -2.127,0.949 -2.127,2.127 v 2.783 h 0.981 V 0 c 0,-0.635 0.511,-1.145 1.146,-1.145 0.635,0 1.145,0.51 1.145,1.145 V 2.783 H 0 Z" /></g><g
           transform="translate(469.5801,344.458)"
           id="g320"><path
             id="path322"
             style="fill:#373535;fill-opacity:1;fill-rule:nonzero;stroke:none"
             d="M 0,0 C 0.268,0 0.49,0.223 0.49,0.492 0.49,0.76 0.268,0.982 0,0.982 H -1.475 V 0 Z m 0.326,-1.963 c 0.27,0 0.49,0.223 0.49,0.49 0,0.268 -0.22,0.491 -0.49,0.491 H -1.48 v -0.981 z m 1.473,0.49 c 0,-0.812 -0.66,-1.472 -1.473,-1.472 h -2.781 v 4.91 H 0 c 0.811,0 1.473,-0.662 1.473,-1.473 0,-0.295 -0.086,-0.57 -0.237,-0.806 0.34,-0.268 0.563,-0.688 0.563,-1.159" /></g><g
           transform="translate(476.3262,344.458)"
           id="g324"><path
             id="path326"
             style="fill:#373535;fill-opacity:1;fill-rule:nonzero;stroke:none"
             d="M 0,0 C 0.268,0 0.49,0.223 0.49,0.492 0.49,0.76 0.268,0.982 0,0.982 H -1.475 V 0 Z m 0.326,-1.963 c 0.27,0 0.49,0.223 0.49,0.49 0,0.268 -0.22,0.491 -0.49,0.491 H -1.48 v -0.981 z m 1.473,0.49 c 0,-0.812 -0.66,-1.472 -1.473,-1.472 h -2.781 v 4.91 H 0 c 0.811,0 1.473,-0.662 1.473,-1.473 0,-0.295 -0.086,-0.57 -0.237,-0.806 0.34,-0.268 0.563,-0.688 0.563,-1.159" /></g><g
           transform="translate(480.6172,346.4229)"
           id="g328"><path
             id="path330"
             style="fill:#373535;fill-opacity:1;fill-rule:nonzero;stroke:none"
             d="M 0,0 H 0.98 V -3.928 H 3.6 V -4.91 H 0 Z" /></g><g
           transform="translate(485.2012,346.4229)"
           id="g332"><path
             id="path334"
             style="fill:#373535;fill-opacity:1;fill-rule:nonzero;stroke:none"
             d="M 0,0 H 1.16 L 2.463,-2.082 3.771,0 H 4.93 L 2.953,-3.148 V -4.91 H 1.971 v 1.762 z" /></g><g
           transform="translate(496.9375,345.3936)"
           id="g336"><path
             id="path338"
             style="fill:#373535;fill-opacity:1;fill-rule:nonzero;stroke:none"
             d="m 0,0 c -0.064,0.061 -0.17,0.061 -0.229,0 -0.066,-0.064 -0.066,-0.17 0,-0.234 L -0.117,-0.346 0,-0.234 C 0.066,-0.17 0.066,-0.064 0,0 m 0.256,-2.756 0.32,0.322 -0.693,0.694 -0.32,-0.321 c -0.192,-0.189 -0.192,-0.503 0,-0.695 0.189,-0.189 0.503,-0.189 0.693,0 M 0.693,-0.928 0.576,-1.039 1.27,-1.74 1.865,-1.145 2.561,-1.838 1.971,-2.434 2.561,-3.023 1.865,-3.717 1.27,-3.129 0.949,-3.449 c -0.576,-0.576 -1.506,-0.576 -2.082,0 -0.576,0.576 -0.576,1.506 0,2.082 l 0.322,0.328 -0.111,0.111 c -0.453,0.451 -0.453,1.17 0,1.623 0.443,0.446 1.17,0.446 1.615,0 0.446,-0.453 0.446,-1.172 0,-1.623" /></g><g
           transform="translate(505.5254,346.4229)"
           id="g340"><path
             id="path342"
             style="fill:#373535;fill-opacity:1;fill-rule:nonzero;stroke:none"
             d="M 0,0 H 3.602 V -0.982 H 0.982 V -2.455 H 2.945 V -3.438 H 0.982 V -4.91 H 0 Z" /></g><g
           transform="translate(513.416,343.8037)"
           id="g344"><path
             id="path346"
             style="fill:#373535;fill-opacity:1;fill-rule:nonzero;stroke:none"
             d="M 0,0 C 0.453,0 0.818,0.367 0.818,0.818 0.818,1.27 0.453,1.637 0,1.637 H -0.818 V 0 Z M 1.984,-2.291 H 0.812 l -0.857,1.309 h -0.773 v -1.309 h -0.981 v 4.91 H 0 c 0.996,0 1.801,-0.807 1.801,-1.801 0,-0.648 -0.34,-1.211 -0.852,-1.531 z" /></g><path
           id="path348"
           style="fill:#373535;fill-opacity:1;fill-rule:nonzero;stroke:none"
           d="m 518.906,341.513 h -0.982 v 4.91 h 0.982 z" /><g
           transform="translate(521.7891,346.4229)"
           id="g350"><path
             id="path352"
             style="fill:#373535;fill-opacity:1;fill-rule:nonzero;stroke:none"
             d="M 0,0 H 3.6 V -0.982 H 0.98 V -2.455 H 2.945 V -3.438 H 0.98 v -0.49 H 3.6 V -4.91 H 0 Z" /></g><g
           transform="translate(530.8262,342.9854)"
           id="g354"><path
             id="path356"
             style="fill:#373535;fill-opacity:1;fill-rule:nonzero;stroke:none"
             d="m 0,0 c 0,-0.812 -0.662,-1.473 -1.473,-1.473 -0.701,0 -1.283,0.485 -1.433,1.139 L -1.965,0 c 0,-0.268 0.223,-0.49 0.492,-0.49 0.268,0 0.491,0.222 0.491,0.49 0,0.268 -0.223,0.49 -0.491,0.49 -0.812,0 -1.472,0.662 -1.472,1.475 0,0.81 0.66,1.473 1.472,1.473 0.7,0 1.284,-0.485 1.434,-1.141 L -0.982,1.965 c 0,0.267 -0.223,0.49 -0.491,0.49 -0.269,0 -0.492,-0.223 -0.492,-0.49 0,-0.27 0.223,-0.492 0.492,-0.492 C -0.662,1.473 0,0.812 0,0" /></g><g
           transform="translate(529.9004,354.959)"
           id="g358"><path
             id="path360"
             style="fill:#373535;fill-opacity:1;fill-rule:nonzero;stroke:none"
             d="m 0,0 h -76.166 c -0.028,0 -0.054,-0.007 -0.082,-0.008 -1.483,-0.08 -10.428,-0.987 -10.428,-11.199 0,-1.104 0.897,-2 2,-2 1.106,0 2,0.896 2,2 0,6.928 5.971,7.199 6.641,7.207 L 0,-4 c 1.104,0 2,0.895 2,2 0,1.104 -0.896,2 -2,2" /></g><g
           transform="translate(284.4731,374.2041)"
           id="g362"><path
             id="path364"
             style="fill:#3f4096;fill-opacity:1;fill-rule:nonzero;stroke:none"
             d="m 0,0 c 0.021,0.18 0.199,0.318 0.358,0.318 h 0.319 c 0.099,0 0.278,-0.078 0.338,-0.199 l 4.616,-8.596 h 0.04 l 4.616,8.596 c 0.06,0.121 0.239,0.199 0.338,0.199 h 0.318 c 0.16,0 0.339,-0.138 0.359,-0.318 l 2.248,-13.371 c 0.04,-0.258 -0.139,-0.438 -0.378,-0.438 h -2.348 c -0.178,0 -0.358,0.161 -0.378,0.319 L 9.551,-7.342 H 9.511 L 6.168,-13.789 C 6.108,-13.908 5.93,-14.008 5.83,-14.008 H 5.472 c -0.119,0 -0.279,0.1 -0.338,0.219 L 1.771,-7.342 H 1.731 L 0.855,-13.49 C 0.836,-13.648 0.677,-13.809 0.478,-13.809 H -1.87 c -0.239,0 -0.418,0.18 -0.378,0.438 z" /></g><g
           transform="translate(306.7056,363.3799)"
           id="g366"><path
             id="path368"
             style="fill:#3f4096;fill-opacity:1;fill-rule:nonzero;stroke:none"
             d="M 0,0 C 2.188,0 3.979,1.791 3.979,3.961 3.979,6.148 2.188,7.959 0,7.959 -2.169,7.959 -3.96,6.148 -3.96,3.961 -3.96,1.791 -2.169,0 0,0 m 0,11.143 c 3.979,0 7.163,-3.204 7.163,-7.182 0,-3.981 -3.184,-7.145 -7.163,-7.145 -3.979,0 -7.144,3.164 -7.144,7.145 0,3.978 3.165,7.182 7.144,7.182" /></g><g
           transform="translate(316.0815,373.9463)"
           id="g370"><path
             id="path372"
             style="fill:#3f4096;fill-opacity:1;fill-rule:nonzero;stroke:none"
             d="M 0,0 C 0,0.199 0.18,0.377 0.379,0.377 H 2.826 C 3.045,0.377 3.204,0.199 3.204,0 v -8.059 c 0,-1.392 1.034,-2.507 2.447,-2.507 1.433,0 2.488,1.115 2.488,2.507 V 0 c 0,0.199 0.159,0.377 0.378,0.377 h 2.447 c 0.199,0 0.378,-0.178 0.378,-0.377 v -8.219 c 0,-3.023 -2.547,-5.531 -5.691,-5.531 C 2.527,-13.75 0,-11.242 0,-8.219 Z" /></g><g
           transform="translate(329.8364,362.2861)"
           id="g374"><path
             id="path376"
             style="fill:#3f4096;fill-opacity:1;fill-rule:nonzero;stroke:none"
             d="M 0,0 0.936,1.652 C 1.095,1.91 1.473,1.871 1.612,1.771 1.691,1.73 3.124,0.676 4.437,0.676 c 0.796,0 1.374,0.498 1.374,1.195 0,0.836 -0.697,1.473 -2.05,2.01 C 2.05,4.557 -0.1,5.891 -0.1,8.277 c 0,1.971 1.533,3.959 4.597,3.959 2.069,0 3.661,-1.054 4.258,-1.492 0.239,-0.139 0.199,-0.496 0.119,-0.637 L 7.859,8.576 C 7.721,8.357 7.362,8.178 7.184,8.316 7.004,8.416 5.552,9.512 4.338,9.512 3.622,9.512 3.084,9.033 3.084,8.496 3.084,7.76 3.682,7.203 5.253,6.566 6.806,5.949 9.272,4.736 9.272,2.029 9.272,-0.02 7.502,-2.09 4.577,-2.09 1.99,-2.09 0.558,-1.016 0.1,-0.557 -0.1,-0.357 -0.159,-0.279 0,0" /></g><g
           transform="translate(340.7437,362.2861)"
           id="g378"><path
             id="path380"
             style="fill:#3f4096;fill-opacity:1;fill-rule:nonzero;stroke:none"
             d="M 0,0 0.936,1.652 C 1.095,1.91 1.473,1.871 1.612,1.771 1.691,1.73 3.124,0.676 4.437,0.676 c 0.796,0 1.374,0.498 1.374,1.195 0,0.836 -0.697,1.473 -2.05,2.01 C 2.05,4.557 -0.1,5.891 -0.1,8.277 c 0,1.971 1.533,3.959 4.597,3.959 2.069,0 3.661,-1.054 4.258,-1.492 0.239,-0.139 0.199,-0.496 0.12,-0.637 L 7.859,8.576 C 7.721,8.357 7.362,8.178 7.184,8.316 7.004,8.416 5.552,9.512 4.338,9.512 3.621,9.512 3.084,9.033 3.084,8.496 3.084,7.76 3.682,7.203 5.253,6.566 6.805,5.949 9.272,4.736 9.272,2.029 9.272,-0.02 7.502,-2.09 4.576,-2.09 1.99,-2.09 0.558,-1.016 0.1,-0.557 -0.1,-0.357 -0.159,-0.279 0,0" /></g><g
           transform="translate(352.4468,373.9463)"
           id="g382"><path
             id="path384"
             style="fill:#3f4096;fill-opacity:1;fill-rule:nonzero;stroke:none"
             d="M 0,0 C 0,0.199 0.159,0.377 0.378,0.377 H 8.616 C 8.835,0.377 8.994,0.199 8.994,0 v -2.17 c 0,-0.197 -0.159,-0.377 -0.378,-0.377 H 3.104 v -2.467 h 4.537 c 0.199,0 0.378,-0.179 0.378,-0.379 v -2.168 c 0,-0.218 -0.179,-0.378 -0.378,-0.378 H 3.104 v -2.686 h 5.512 c 0.219,0 0.378,-0.18 0.378,-0.379 v -2.168 c 0,-0.199 -0.159,-0.379 -0.378,-0.379 H 0.378 c -0.219,0 -0.378,0.18 -0.378,0.379 z" /></g><g
           transform="translate(319.2866,392.9561)"
           id="g386"><path
             id="path388"
             style="fill:#3f4096;fill-opacity:1;fill-rule:nonzero;stroke:none"
             d="M 0,0 C 0,0.199 0.159,0.377 0.378,0.377 H 8.616 C 8.835,0.377 8.994,0.199 8.994,0 v -2.17 c 0,-0.197 -0.159,-0.377 -0.378,-0.377 H 3.104 v -2.865 h 4.537 c 0.199,0 0.378,-0.18 0.378,-0.379 v -2.168 c 0,-0.199 -0.179,-0.379 -0.378,-0.379 H 3.104 v -4.834 c 0,-0.199 -0.179,-0.379 -0.377,-0.379 H 0.378 c -0.219,0 -0.378,0.18 -0.378,0.379 z" /></g><g
           transform="translate(330.4927,392.9561)"
           id="g390"><path
             id="path392"
             style="fill:#3f4096;fill-opacity:1;fill-rule:nonzero;stroke:none"
             d="M 0,0 C 0,0.199 0.18,0.377 0.378,0.377 H 2.766 C 2.965,0.377 3.144,0.199 3.144,0 v -13.172 c 0,-0.199 -0.179,-0.379 -0.378,-0.379 H 0.378 C 0.18,-13.551 0,-13.371 0,-13.172 Z" /></g><g
           transform="translate(337.0415,393.1748)"
           id="g394"><path
             id="path396"
             style="fill:#3f4096;fill-opacity:1;fill-rule:nonzero;stroke:none"
             d="m 0,0 c 0,0.199 0.179,0.357 0.378,0.357 h 0.497 l 7.939,-7.64 h 0.02 v 7.064 c 0,0.199 0.159,0.377 0.378,0.377 h 2.389 c 0.198,0 0.378,-0.178 0.378,-0.377 v -13.39 c 0,-0.2 -0.18,-0.36 -0.378,-0.36 h -0.319 c -0.06,0 -0.219,0.061 -0.259,0.1 l -7.86,7.9 H 3.144 v -7.422 c 0,-0.199 -0.16,-0.379 -0.378,-0.379 H 0.397 c -0.198,0 -0.377,0.18 -0.377,0.379 z" /></g><g
           transform="translate(352.4468,392.9561)"
           id="g398"><path
             id="path400"
             style="fill:#3f4096;fill-opacity:1;fill-rule:nonzero;stroke:none"
             d="M 0,0 C 0,0.199 0.159,0.377 0.378,0.377 H 8.616 C 8.835,0.377 8.994,0.199 8.994,0 v -2.17 c 0,-0.197 -0.159,-0.377 -0.378,-0.377 H 3.104 v -2.467 h 4.537 c 0.199,0 0.378,-0.179 0.378,-0.379 v -2.168 c 0,-0.218 -0.179,-0.378 -0.378,-0.378 H 3.104 v -2.686 h 5.512 c 0.219,0 0.378,-0.18 0.378,-0.379 v -2.168 c 0,-0.199 -0.159,-0.379 -0.378,-0.379 H 0.378 c -0.219,0 -0.378,0.18 -0.378,0.379 z" /></g><g
           transform="translate(329.6489,408.9346)"
           id="g402"><path
             id="path404"
             style="fill:#3f4096;fill-opacity:1;fill-rule:nonzero;stroke:none"
             d="M 0,0 H -2.758 C -2.97,0 -3.124,0.174 -3.124,0.365 v 2.104 c 0,0.191 0.154,0.365 0.366,0.365 h 8.564 c 0.212,0 0.366,-0.174 0.366,-0.365 V 0.365 C 6.172,0.174 6.018,0 5.806,0 H 3.048 v -10.301 c 0,-0.191 -0.174,-0.365 -0.367,-0.365 H 0.366 C 0.174,-10.666 0,-10.492 0,-10.301 Z" /></g><g
           transform="translate(337.7476,411.4033)"
           id="g406"><path
             id="path408"
             style="fill:#3f4096;fill-opacity:1;fill-rule:nonzero;stroke:none"
             d="M 0,0 C 0,0.191 0.173,0.365 0.366,0.365 H 2.661 C 2.873,0.365 3.027,0.191 3.027,0 V -4.861 H 8.544 V 0 c 0,0.191 0.154,0.365 0.366,0.365 h 2.295 c 0.193,0 0.367,-0.174 0.367,-0.365 v -12.77 c 0,-0.191 -0.174,-0.365 -0.367,-0.365 H 8.91 c -0.212,0 -0.366,0.174 -0.366,0.365 v 5.075 H 3.027 v -5.075 c 0,-0.191 -0.154,-0.365 -0.366,-0.365 H 0.366 C 0.173,-13.135 0,-12.961 0,-12.77 Z" /></g><g
           transform="translate(352.6343,411.4033)"
           id="g410"><path
             id="path412"
             style="fill:#3f4096;fill-opacity:1;fill-rule:nonzero;stroke:none"
             d="M 0,0 C 0,0.191 0.154,0.365 0.366,0.365 H 8.351 C 8.563,0.365 8.717,0.191 8.717,0 v -2.104 c 0,-0.191 -0.154,-0.365 -0.366,-0.365 H 3.008 v -2.392 h 4.398 c 0.193,0 0.366,-0.174 0.366,-0.366 V -7.33 c 0,-0.211 -0.173,-0.365 -0.366,-0.365 H 3.008 v -2.606 h 5.343 c 0.212,0 0.366,-0.172 0.366,-0.365 v -2.104 c 0,-0.191 -0.154,-0.365 -0.366,-0.365 H 0.366 C 0.154,-13.135 0,-12.961 0,-12.77 Z" /></g><g
           transform="translate(358.0015,422.4922)"
           id="g414"><path
             id="path416"
             style="fill:#e8483d;fill-opacity:1;fill-rule:nonzero;stroke:none"
             d="m 0,0 c 0,-1.258 -1.024,-2.281 -2.283,-2.281 h -20.742 l -0.144,-0.006 c -0.033,-0.002 -0.259,-0.016 -0.634,-0.016 -1.715,0 -7.659,0.307 -12.153,4.262 -9.541,8.395 -25.266,9.301 -31.583,9.301 -1.295,0 -2.145,-0.039 -2.392,-0.053 -1.237,0.025 -2.235,1.039 -2.235,2.281 v 4.969 h 13.342 c 4.774,0 7.625,2.785 7.625,7.451 h -4 c 0,-2.418 -1.084,-3.451 -3.625,-3.451 h -13.342 v 8.777 c 0,1.258 1.023,2.282 2.281,2.282 H -2.283 C -1.024,33.516 0,32.492 0,31.234 Z m -2.283,37.516 h -5.854 v 3.755 c 0,1.073 0.277,1.848 0.845,2.374 0.881,0.81 2.381,0.98 3.185,0.98 h 0.005 l 0.518,-0.02 c 2.722,0.032 4.859,0.893 6.355,2.559 2.227,2.482 2.106,5.779 2.043,6.541 v 11.49 c 0,1.106 -0.895,2 -2,2 -1.104,0 -2,-0.894 -2,-2 v -11.58 l 0.011,-0.203 c 0.002,-0.021 0.195,-2.23 -1.047,-3.594 -0.701,-0.771 -1.816,-1.177 -3.315,-1.211 -0.597,0.04 -2.634,0.092 -4.6,-0.8 v 17.388 c 0,1.106 -0.895,2 -2,2 -1.104,0 -2,-0.894 -2,-2 V 41.271 37.516 h -8.951 v 3.755 23.924 c 0,1.106 -0.895,2 -2,2 -1.104,0 -2,-0.894 -2,-2 V 47.806 c -2.001,0.907 -4.076,0.837 -4.632,0.799 h -1.985 v 16.59 c 0,1.106 -0.896,2 -2,2 -1.105,0 -2,-0.894 -2,-2 v -16.59 h -9.408 v 16.59 c 0,1.106 -0.896,2 -2,2 -1.105,0 -2,-0.894 -2,-2 v -16.59 h -9.41 v 16.59 c 0,1.106 -0.896,2 -2,2 -1.105,0 -2,-0.894 -2,-2 v -16.59 h -4.704 c -1.6,0 -2.784,0.409 -3.516,1.213 -1.241,1.364 -1.049,3.573 -1.048,3.58 l 0.012,11.797 c 0,1.106 -0.896,2 -2,2 -1.105,0 -2,-0.894 -2,-2 v -11.49 c -0.063,-0.762 -0.184,-4.059 2.044,-6.541 1.523,-1.697 3.713,-2.559 6.508,-2.559 h 37.586 l 0.175,0.008 c 0.633,0.053 2.505,-0.021 3.533,-0.968 0.569,-0.526 0.845,-1.301 0.845,-2.374 v -3.755 h -44.797 c -3.464,0 -6.281,-2.817 -6.281,-6.282 V 13.488 c 0,-3.463 2.817,-6.281 6.281,-6.281 l 0.118,0.004 c 0.009,0 0.839,0.049 2.228,0.049 5.863,0 20.422,-0.809 28.94,-8.305 5.395,-4.746 12.145,-5.258 14.796,-5.258 0.417,0 0.707,0.014 0.841,0.022 H -2.283 C 1.182,-6.281 4,-3.463 4,0 v 31.234 c 0,3.465 -2.818,6.282 -6.283,6.282" /></g><g
           transform="translate(343.9556,444.7285)"
           id="g418"><path
             id="path420"
             style="fill:#e8483d;fill-opacity:1;fill-rule:nonzero;stroke:none"
             d="M 0,0 C -1.534,-0.887 -3.676,-0.885 -5.206,0.002 -6.107,0.523 -7.18,1.582 -7.177,3.67 l -4,0.006 c -0.005,-3.072 1.441,-5.674 3.967,-7.137 1.378,-0.797 2.993,-1.195 4.608,-1.195 1.612,0 3.224,0.396 4.6,1.191 2.533,1.459 3.985,4.061 3.985,7.137 h -4 C 1.983,1.582 0.905,0.521 0,0" /></g><g
           transform="translate(359.814,350.959)"
           id="g422"><path
             id="path424"
             style="fill:#e8483d;fill-opacity:1;fill-rule:nonzero;stroke:none"
             d="m 0,0 h -76.166 c -1.105,0 -2,0.895 -2,2 0,1.104 0.895,2 2,2 H 0 C 1.104,4 2,3.104 2,2 2,0.895 1.104,0 0,0" /></g><g
           transform="translate(461.9209,611.1016)"
           id="g426"><path
             id="path428"
             style="fill:#373535;fill-opacity:1;fill-rule:nonzero;stroke:none"
             d="m 0,0 c 6.317,0 22.042,-0.906 31.583,-9.299 4.494,-3.955 10.438,-4.262 12.152,-4.262 0.375,0 0.602,0.012 0.635,0.016 l 0.143,0.004 h 20.742 c 1.26,0 2.283,1.023 2.283,2.283 v 31.234 c 0,1.258 -1.023,2.281 -2.283,2.281 H -2.346 c -1.258,0 -2.281,-1.023 -2.281,-2.281 V 2.23 c 0,-1.242 0.998,-2.255 2.235,-2.281 C -2.145,-0.037 -1.295,0 0,0 m 43.735,-17.561 c -2.65,0 -9.4,0.512 -14.795,5.258 C 20.422,-4.809 5.863,-4 0,-4 -1.389,-4 -2.219,-4.047 -2.228,-4.047 l -0.118,-0.004 c -3.464,0 -6.281,2.817 -6.281,6.281 v 17.746 c 0,3.464 2.817,6.281 6.281,6.281 h 67.601 c 3.465,0 6.283,-2.817 6.283,-6.281 v -31.234 c 0,-3.465 -2.818,-6.283 -6.283,-6.283 H 44.577 c -0.135,-0.008 -0.424,-0.02 -0.842,-0.02" /></g><g
           transform="translate(506.3711,633.3589)"
           id="g430"><path
             id="path432"
             style="fill:#373535;fill-opacity:1;fill-rule:nonzero;stroke:none"
             d="m 0,0 c -1.104,0 -2,0.896 -2,2 v 5.756 c 0,1.072 -0.275,1.848 -0.844,2.372 -1.029,0.948 -2.9,1.022 -3.533,0.969 l -0.176,-0.008 h -37.585 c -2.796,0 -4.985,0.861 -6.508,2.558 -2.228,2.484 -2.107,5.781 -2.044,6.542 V 31.68 c 0,1.104 0.895,2 2,2 1.104,0 2,-0.896 2,-2 l -0.012,-11.797 c -0.001,-0.009 -0.194,-2.217 1.048,-3.58 0.732,-0.806 1.916,-1.214 3.516,-1.214 h 37.507 c 0.733,0.049 4.108,0.16 6.471,-1.995 C 0.826,12.195 2,10.54 2,7.756 V 2 C 2,0.896 1.105,0 0,0" /></g><g
           transform="translate(519.3223,633.3589)"
           id="g434"><path
             id="path436"
             style="fill:#373535;fill-opacity:1;fill-rule:nonzero;stroke:none"
             d="m 0,0 c -1.104,0 -2,0.896 -2,2 v 5.756 c 0,2.784 1.176,4.439 2.162,5.338 2.33,2.126 5.647,2.051 6.438,1.997 1.5,0.033 2.615,0.44 3.316,1.212 1.24,1.363 1.049,3.571 1.047,3.593 l -0.012,0.203 V 31.68 c 0,1.104 0.897,2 2,2 1.106,0 2,-0.896 2,-2 V 20.189 C 15.014,19.428 15.135,16.13 12.908,13.647 11.412,11.981 9.275,11.121 6.553,11.09 v -10e-4 l -0.518,0.02 H 6.029 c -0.802,0 -2.302,-0.17 -3.183,-0.981 C 2.277,9.604 2,8.828 2,7.756 V 2 C 2,0.896 1.105,0 0,0" /></g><g
           transform="translate(468.9365,645.104)"
           id="g438"><path
             id="path440"
             style="fill:#373535;fill-opacity:1;fill-rule:nonzero;stroke:none"
             d="m 0,0 c -1.104,0 -2,0.896 -2,2 v 17.935 c 0,1.104 0.896,2 2,2 1.104,0 2,-0.896 2,-2 V 2 C 2,0.896 1.104,0 0,0" /></g><g
           transform="translate(482.3467,645.104)"
           id="g442"><path
             id="path444"
             style="fill:#373535;fill-opacity:1;fill-rule:nonzero;stroke:none"
             d="m 0,0 c -1.104,0 -2,0.896 -2,2 v 17.935 c 0,1.104 0.896,2 2,2 1.104,0 2,-0.896 2,-2 V 2 C 2,0.896 1.104,0 0,0" /></g><g
           transform="translate(495.7549,645.104)"
           id="g446"><path
             id="path448"
             style="fill:#373535;fill-opacity:1;fill-rule:nonzero;stroke:none"
             d="m 0,0 c -1.104,0 -2,0.896 -2,2 v 17.935 c 0,1.104 0.896,2 2,2 1.104,0 2,-0.896 2,-2 V 2 C 2,0.896 1.104,0 0,0" /></g><g
           transform="translate(506.3711,639.1147)"
           id="g450"><path
             id="path452"
             style="fill:#373535;fill-opacity:1;fill-rule:nonzero;stroke:none"
             d="m 0,0 c -1.104,0 -2,0.896 -2,2 v 23.924 c 0,1.104 0.896,2 2,2 1.105,0 2,-0.896 2,-2 V 2 C 2,0.896 1.105,0 0,0" /></g><g
           transform="translate(519.3223,639.1147)"
           id="g454"><path
             id="path456"
             style="fill:#373535;fill-opacity:1;fill-rule:nonzero;stroke:none"
             d="m 0,0 c -1.104,0 -2,0.896 -2,2 v 23.924 c 0,1.104 0.896,2 2,2 1.105,0 2,-0.896 2,-2 V 2 C 2,0.896 1.105,0 0,0" /></g><g
           transform="translate(512.8125,617.4233)"
           id="g458"><path
             id="path460"
             style="fill:#373535;fill-opacity:1;fill-rule:nonzero;stroke:none"
             d="M 0,0 C -1.615,0 -3.23,0.398 -4.609,1.195 -7.135,2.657 -8.58,5.259 -8.576,8.331 l 4,-0.006 C -4.578,6.238 -3.506,5.179 -2.605,4.657 -1.074,3.771 1.066,3.77 2.602,4.655 3.506,5.177 4.584,6.237 4.584,8.328 h 4 C 8.584,5.252 7.133,2.65 4.6,1.19 3.223,0.396 1.611,0 0,0" /></g><g
           transform="translate(470.6357,618.3003)"
           id="g462"><path
             id="path464"
             style="fill:#373535;fill-opacity:1;fill-rule:nonzero;stroke:none"
             d="M 0,0 H -14.979 V 4 H 0 c 2.541,0 3.625,1.032 3.625,3.451 h 4 C 7.625,2.785 4.774,0 0,0" /></g><g
           transform="translate(290.4624,611.1016)"
           id="g466"><path
             id="path468"
             style="fill:#e8483d;fill-opacity:1;fill-rule:nonzero;stroke:none"
             d="m 0,0 c 6.317,0 22.042,-0.906 31.583,-9.299 4.494,-3.955 10.438,-4.262 12.153,-4.262 0.375,0 0.601,0.012 0.634,0.016 l 0.144,0.004 h 20.742 c 1.259,0 2.283,1.023 2.283,2.283 v 31.234 c 0,1.258 -1.024,2.281 -2.283,2.281 H -2.346 c -1.258,0 -2.281,-1.023 -2.281,-2.281 V 2.23 c 0,-1.242 0.998,-2.255 2.235,-2.281 C -2.145,-0.037 -1.295,0 0,0 m 43.736,-17.561 c -2.651,0 -9.401,0.512 -14.796,5.258 C 20.422,-4.809 5.863,-4 0,-4 -1.389,-4 -2.219,-4.047 -2.228,-4.047 l -0.118,-0.004 c -3.464,0 -6.281,2.817 -6.281,6.281 v 17.746 c 0,3.464 2.817,6.281 6.281,6.281 h 67.602 c 3.465,0 6.283,-2.817 6.283,-6.281 v -31.234 c 0,-3.465 -2.818,-6.283 -6.283,-6.283 H 44.577 c -0.134,-0.008 -0.424,-0.02 -0.841,-0.02" /></g><g
           transform="translate(334.9136,633.3589)"
           id="g470"><path
             id="path472"
             style="fill:#e8483d;fill-opacity:1;fill-rule:nonzero;stroke:none"
             d="m 0,0 c -1.104,0 -2,0.896 -2,2 v 5.756 c 0,1.072 -0.276,1.848 -0.845,2.372 -1.028,0.948 -2.9,1.022 -3.533,0.969 l -0.175,-0.008 h -37.586 c -2.796,0 -4.985,0.861 -6.508,2.558 -2.228,2.484 -2.107,5.781 -2.044,6.542 V 31.68 c 0,1.104 0.895,2 2,2 1.104,0 2,-0.896 2,-2 l -0.012,-11.797 c -10e-4,-0.009 -0.193,-2.217 1.048,-3.58 0.732,-0.806 1.916,-1.214 3.516,-1.214 h 37.507 c 0.734,0.049 4.108,0.16 6.471,-1.995 C 0.825,12.195 2,10.54 2,7.756 V 2 C 2,0.896 1.104,0 0,0" /></g><g
           transform="translate(347.8647,633.3589)"
           id="g474"><path
             id="path476"
             style="fill:#e8483d;fill-opacity:1;fill-rule:nonzero;stroke:none"
             d="m 0,0 c -1.104,0 -2,0.896 -2,2 v 5.756 c 0,2.784 1.175,4.439 2.161,5.338 2.331,2.126 5.648,2.051 6.439,1.997 1.499,0.033 2.614,0.44 3.315,1.212 1.241,1.363 1.049,3.571 1.047,3.593 l -0.011,0.203 V 31.68 c 0,1.104 0.896,2 2,2 1.105,0 2,-0.896 2,-2 V 20.189 C 15.014,19.428 15.135,16.13 12.907,13.647 11.412,11.981 9.274,11.121 6.553,11.09 v -10e-4 l -0.518,0.02 H 6.029 c -0.803,0 -2.303,-0.17 -3.184,-0.981 C 2.276,9.604 2,8.828 2,7.756 V 2 C 2,0.896 1.104,0 0,0" /></g><g
           transform="translate(297.478,645.104)"
           id="g478"><path
             id="path480"
             style="fill:#e8483d;fill-opacity:1;fill-rule:nonzero;stroke:none"
             d="m 0,0 c -1.104,0 -2,0.896 -2,2 v 17.935 c 0,1.104 0.896,2 2,2 1.104,0 2,-0.896 2,-2 V 2 C 2,0.896 1.104,0 0,0" /></g><g
           transform="translate(310.8882,645.104)"
           id="g482"><path
             id="path484"
             style="fill:#e8483d;fill-opacity:1;fill-rule:nonzero;stroke:none"
             d="m 0,0 c -1.104,0 -2,0.896 -2,2 v 17.935 c 0,1.104 0.896,2 2,2 1.104,0 2,-0.896 2,-2 V 2 C 2,0.896 1.104,0 0,0" /></g><g
           transform="translate(324.2964,645.104)"
           id="g486"><path
             id="path488"
             style="fill:#e8483d;fill-opacity:1;fill-rule:nonzero;stroke:none"
             d="m 0,0 c -1.104,0 -2,0.896 -2,2 v 17.935 c 0,1.104 0.896,2 2,2 1.104,0 2,-0.896 2,-2 V 2 C 2,0.896 1.104,0 0,0" /></g><g
           transform="translate(334.9136,639.1147)"
           id="g490"><path
             id="path492"
             style="fill:#e8483d;fill-opacity:1;fill-rule:nonzero;stroke:none"
             d="m 0,0 c -1.104,0 -2,0.896 -2,2 v 23.924 c 0,1.104 0.896,2 2,2 1.104,0 2,-0.896 2,-2 V 2 C 2,0.896 1.104,0 0,0" /></g><g
           transform="translate(347.8647,639.1147)"
           id="g494"><path
             id="path496"
             style="fill:#e8483d;fill-opacity:1;fill-rule:nonzero;stroke:none"
             d="m 0,0 c -1.104,0 -2,0.896 -2,2 v 23.924 c 0,1.104 0.896,2 2,2 1.104,0 2,-0.896 2,-2 V 2 C 2,0.896 1.104,0 0,0" /></g><g
           transform="translate(341.354,617.4233)"
           id="g498"><path
             id="path500"
             style="fill:#e8483d;fill-opacity:1;fill-rule:nonzero;stroke:none"
             d="M 0,0 C -1.615,0 -3.23,0.398 -4.608,1.195 -7.135,2.657 -8.58,5.259 -8.575,8.331 l 4,-0.006 C -4.578,6.238 -3.506,5.179 -2.604,4.657 -1.074,3.771 1.067,3.77 2.602,4.655 3.507,5.177 4.585,6.237 4.585,8.328 h 4 C 8.585,5.252 7.133,2.65 4.6,1.19 3.224,0.396 1.611,0 0,0" /></g><g
           transform="translate(299.1772,618.3003)"
           id="g502"><path
             id="path504"
             style="fill:#e8483d;fill-opacity:1;fill-rule:nonzero;stroke:none"
             d="M 0,0 H -14.979 V 4 H 0 c 2.541,0 3.625,1.032 3.625,3.451 h 4 C 7.625,2.785 4.774,0 0,0" /></g></g></g></g></svg>