<?xml version="1.0" encoding="UTF-8"?>
<!-- Created with EazyDraw for Mac ( http://www.eazydraw.com/ ) -->

<svg
    version="1.1"
    xmlns:dc="http://purl.org/dc/elements/1.1/"
    xmlns:cc="http://creativecommons.org/ns#"
    xmlns:rdf="http://www.w3.org/1999/02/22-rdf-syntax-ns#"
    xmlns:svg="http://www.w3.org/2000/svg"
    xmlns:xlink="http://www.w3.org/1999/xlink"
    xmlns="http://www.w3.org/2000/svg"
    width="327.09937857"
    height="327.09937857"
    viewBox="0, 0, 327.09937857, 327.09937857"
    preserveAspectRatio="none"
    id="svg2">
   <defs
       id="defs_7108F550"/>
   <metadata
       id="metadata7">
      <rdf:RDF>
         <cc:Work
             rdf:about="">
            <dc:format>image/svg+xml</dc:format>
            <dc:type rdf:resource="http://purl.org/dc/dcmitype/StillImage"/>
            <dc:title></dc:title>
         </cc:Work>
      </rdf:RDF>
   </metadata>
   <g
       id="layer_Paper"
       style="fill:#000000;fill-opacity:1;stroke:#000000;stroke-opacity:1;fill-rule:nonzero;stroke-linecap:square;stroke-linejoin:miter;stroke-width:1;stroke-miterlimit:10">
      <g
          id="BDFAC450">
         <g
             id="5E615830">
            <path
                style="fill:#E8483D;stroke:none"
                id="30715830"
                d="M34.8355275871,248.945402606 C60.3433550784,248.945402606 123.840361144,252.977490883 162.366589114,290.329937795 C180.513205664,307.931382757 204.514872057,309.297664324 211.439982736,309.297664324 C212.954219763,309.297664324 213.866799946,309.24425918 214.000052805,309.226457467
L214.581519823,309.208655753 L298.336998347,309.208655753 C303.420796796,309.208655753 307.555673378,304.655867335 307.555673378,299.048327348 L307.555673378,160.043641665 C307.555673378,154.445002536 303.420796796,149.892214118 298.336998347,149.892214118
L25.3624607359,149.892214118 C20.282700252,149.892214118 16.1518616378,154.445002536 16.1518616378,160.043641665 L16.1518616378,239.020946914 C16.1518616378,244.548379185 20.1817511153,249.056663318 25.1767143265,249.172374462
C26.1740917823,249.110068462 29.6063623803,248.945402606 34.8355275871,248.945402606 M211.439982736,327.09937857 C200.735336433,327.09937857 173.479069919,324.820759145 151.694246537,303.699025196 C117.29885718,270.347513555 58.5101187831,266.747116851 34.8355275871,266.747116851
C29.2267936325,266.747116851 25.8752823426,266.956286993 25.838940656,266.956286993 L25.3624607359,266.974088707 C11.3749485581,266.974088707 0,254.43723145 0,239.020946914 L0,160.043641665 C0,144.627357129 11.3749485581,132.090499873 25.3624607359,132.090499873
L298.336998347,132.090499873 C312.32854849,132.090499873 323.707535015,144.627357129 323.707535015,160.043641665 L323.707535015,299.048327348 C323.707535015,314.469062314 312.32854849,327.010369998 298.336998347,327.010369998
L214.835911644,327.010369998 C214.29482428,327.045973426 213.123814311,327.09937857 211.439982736,327.09937857"/>
         </g>
         <g
             id="C1715830">
            <path
                style="fill:#E8483D;stroke:none"
                id="83715830"
                d="M214.327935596,149.890878989 C209.870021785,149.890878989 206.252004777,145.903294998 206.252004777,140.990021867 L206.252004777,115.373355067 C206.252004777,110.602495648 205.137526324,107.148963084 202.839924005,104.816938518
C198.688895565,100.597932244 191.129824317,100.268600531 188.573792213,100.504473245 L187.867148268,100.540076672 L36.0961803872,100.540076672 C24.8060291017,100.540076672 15.9669228225,96.7082576818 9.8171015036,89.1558804136
C0.820514569506,78.1010158647 1.309108386171,63.4279528985 1.56350020727,60.0411767644 L1.56350020727,8.901302167661 C1.56350020727,3.988029033332 5.177479247222,0.000445045092 9.639431026189,0.000445045092
C14.0973448376,0.000445045092 17.7153618451,3.988029033332 17.7153618451,8.901302167661 L17.666906259,61.4030079048 C17.6628682945,61.4430617595 16.8875789347,71.2696080248 21.8986940069,77.3355421542 C24.8544846878,80.9225875753 29.635435732,82.7383624269 36.0961803872,82.7383624269
L187.548148999,82.7383624269 C190.512015609,82.5202914264 204.136110903,82.0262938571 213.677823166,91.616967405 C217.659257057,95.6179026826 222.403866415,102.983361953 222.403866415,115.373355067 L222.403866415,140.990021867
C222.403866415,145.903294998 218.785849408,149.890878989 214.327935596,149.890878989"/>
         </g>
         <g
             id="25715830">
            <path
                style="fill:#E8483D;stroke:none"
                id="17715830"
                d="M266.624029412,149.890878989 C262.166115597,149.890878989 258.548098593,145.903294998 258.548098593,140.990021867 L258.548098593,115.373355067 C258.548098593,102.983361953 263.292707947,95.6179026826 267.274141842,91.616967405
C276.68663921,82.1553562864 290.080570473,82.4891384268 293.274601114,82.7294615685 C299.327511261,82.5825974256 303.829842694,80.7712730015 306.660456445,77.3355421542 C311.671571517,71.2696080248 310.89628216,61.4430617595 310.888206228,61.3451523332
L310.84378861,60.4417153349 L310.84378861,8.901302167661 C310.84378861,3.988029033332 314.461805617,0.000445045092 318.919719429,0.000445045092 C323.381671205,0.000445045092 326.995650248,3.988029033332 326.995650248,8.901302167661
L326.995650248,60.0411767644 C327.250042069,63.4279528985 327.738635882,78.1054662956 318.742048951,89.1558804136 C312.705290663,96.5702943941 304.072120618,100.397662957 293.084816737,100.535626245 L293.084816737,100.540076672
L290.993150656,100.451068101 L290.968922863,100.451068101 C287.726436639,100.451068101 281.669488525,101.207640956 278.112041,104.816938518 C275.814438681,107.148963084 274.699960231,110.602495648 274.699960231,115.373355067
L274.699960231,140.990021867 C274.699960231,145.903294998 271.081943223,149.890878989 266.624029412,149.890878989"/>
         </g>
         <g
             id="98715830">
            <path
                style="fill:#E8483D;stroke:none"
                id="5A715830"
                d="M63.1642777123,97.6201504934 C58.7063639008,97.6201504934 55.0883468933,93.6325665019 55.0883468933,88.7192933709 L55.0883468933,8.900857122568 C55.0883468933,3.987583991578 58.7063639008,0 63.1642777123,0
C67.6221915267,0 71.2402085312,3.987583991578 71.2402085312,8.900857122568 L71.2402085312,88.7192933709 C71.2402085312,93.6325665019 67.6221915267,97.6201504934 63.1642777123,97.6201504934"/>
         </g>
         <g
             id="EB715830">
            <path
                style="fill:#E8483D;stroke:none"
                id="9D715830"
                d="M117.314201447,97.6201504934 C112.856287636,97.6201504934 109.238270628,93.6325665019 109.238270628,88.7192933709 L109.238270628,8.900857122568 C109.238270628,3.987583991578 112.856287636,0 117.314201447,0
C121.772115259,0 125.390132266,3.987583991578 125.390132266,8.900857122568 L125.390132266,88.7192933709 C125.390132266,93.6325665019 121.772115259,97.6201504934 117.314201447,97.6201504934"/>
         </g>
         <g
             id="1F715830">
            <path
                style="fill:#E8483D;stroke:none"
                id="D0815830"
                d="M171.45604925,97.6201504934 C166.998135439,97.6201504934 163.380118431,93.6325665019 163.380118431,88.7192933709 L163.380118431,8.900857122568 C163.380118431,3.987583991578 166.998135439,0 171.45604925,0
C175.913963062,0 179.531980069,3.987583991578 179.531980069,8.900857122568 L179.531980069,88.7192933709 C179.531980069,93.6325665019 175.913963062,97.6201504934 171.45604925,97.6201504934"/>
         </g>
         <g
             id="42815830">
            <path
                style="fill:#E8483D;stroke:none"
                id="24815830"
                d="M214.327935596,124.275102273 C209.870021785,124.275102273 206.252004777,120.287518285 206.252004777,115.374245151 L206.252004777,8.902192251169 C206.252004777,3.988919120179 209.870021785,0.001335128601 214.327935596,0.001335128601
C218.785849408,0.001335128601 222.403866415,3.988919120179 222.403866415,8.902192251169 L222.403866415,115.374245151 C222.403866415,120.287518285 218.785849408,124.275102273 214.327935596,124.275102273"/>
         </g>
         <g
             id="C5815830">
            <path
                style="fill:#E8483D;stroke:none"
                id="77815830"
                d="M266.624029412,124.275102273 C262.166115597,124.275102273 258.548098593,120.287518285 258.548098593,115.374245151 L258.548098593,8.902192251169 C258.548098593,3.988919120179 262.166115597,0.001335128601 266.624029412,0.001335128601
C271.081943223,0.001335128601 274.699960231,3.988919120179 274.699960231,8.902192251169 L274.699960231,115.374245151 C274.699960231,120.287518285 271.081943223,124.275102273 266.624029412,124.275102273"/>
         </g>
         <g
             id="29815830">
            <path
                style="fill:#E8483D;stroke:none"
                id="7B815830"
                d="M240.334048018,220.811128369 C233.812733884,220.811128369 227.291419746,219.039857803 221.727103413,215.49286624 C211.523164823,208.986339682 205.688304805,197.406324564 205.708494634,183.734608026 L221.860356272,183.761310598
C221.848242375,193.049355005 226.176941292,197.762358849 229.819186093,200.085482559 C235.997273169,204.028562265 244.64255711,204.033012693 250.840834015,200.094383418 C254.495192709,197.771259707 258.848119422,193.053805432 258.848119422,183.747959312
L274.99998106,183.747959312 C274.99998106,197.437477567 269.136855284,209.017492681 258.908688902,215.515118381 C253.352448498,219.048758658 246.839210292,220.811128369 240.334048018,220.811128369"/>
         </g>
         <g
             id="FC815830">
            <path
                style="fill:#E8483D;stroke:none"
                id="FE815830"
                d="M70.0255885379,216.908102521 L9.540904668745,216.908102521 L9.540904668745,199.106388276 L70.0255885379,199.106388276 C80.2860586425,199.106388276 84.6632131457,194.513545999 84.6632131457,183.747959312
L100.815074784,183.747959312 C100.815074784,204.513658979 89.3028354021,216.908102521 70.0255885379,216.908102521"/>
         </g>
      </g>
   </g>
</svg>
