<?xml version="1.0" encoding="UTF-8"?>
<!-- Created with EazyDraw for Mac ( http://www.eazydraw.com/ ) -->

<svg
    version="1.1"
    xmlns:dc="http://purl.org/dc/elements/1.1/"
    xmlns:cc="http://creativecommons.org/ns#"
    xmlns:rdf="http://www.w3.org/1999/02/22-rdf-syntax-ns#"
    xmlns:svg="http://www.w3.org/2000/svg"
    xmlns:xlink="http://www.w3.org/1999/xlink"
    xmlns="http://www.w3.org/2000/svg"
    width="108.007981652"
    height="97.9978642168"
    viewBox="0, 0, 108.007981652, 97.9978642168"
    preserveAspectRatio="none"
    id="svg2">
   <defs
       id="defs_A3399F40"/>
   <metadata
       id="metadata7">
      <rdf:RDF>
         <cc:Work
             rdf:about="">
            <dc:format>image/svg+xml</dc:format>
            <dc:type rdf:resource="http://purl.org/dc/dcmitype/StillImage"/>
            <dc:title></dc:title>
         </cc:Work>
      </rdf:RDF>
   </metadata>
   <g
       id="layer_Paper"
       style="fill:#000000;fill-opacity:1;stroke:#000000;stroke-opacity:1;fill-rule:nonzero;stroke-linecap:square;stroke-linejoin:miter;stroke-width:1;stroke-miterlimit:10">
      <g
          id="5E615830">
         <path
             style="fill:#E8483D;stroke:none"
             id="30715830"
             d="M11.502666379,74.5831981358 C19.925332835,74.5831981358 40.891998978,75.7911981058 53.613331993,86.9818644918 C59.605331843,92.2551976938 67.530664978,92.6645310168 69.817331588,92.6645310168 C70.317331575,92.6645310168 70.618664901,92.6485310168 70.6626649,92.6431976838
L70.854664895,92.6378643508 L98.510664204,92.6378643508 C100.189330828,92.6378643508 101.554664128,91.2738643848 101.554664128,89.5938644268 L101.554664128,47.9485321349 C101.554664128,46.2711988439 100.189330828,44.9071988779 98.510664204,44.9071988779
L8.374666457,44.9071988779 C6.697333166,44.9071988779 5.3333332,46.2711988439 5.3333332,47.9485321349 L5.3333332,71.6098648768 C5.3333332,73.2658648348 6.663999833,74.6165314678 8.313333125,74.6511981338
C8.64266645,74.6325314678 9.775999755,74.5831981358 11.502666379,74.5831981358 M69.817331588,97.9978642168 C66.282665009,97.9978642168 57.282665234,97.3151975668 50.089332081,90.9871977258 C38.731999032,80.9951979748 19.319999517,79.9165313358 11.502666379,79.9165313358
C9.650666425,79.9165313358 8.543999786,79.9791980008 8.531999787,79.9791980008 L8.374666457,79.9845313338 C3.755999906,79.9845313338 0,76.2285314278 0,71.6098648768 L0,47.9485321349 C0,43.3298655839 3.755999906,39.5738656779 8.374666457,39.5738656779
L98.510664204,39.5738656779 C103.130664088,39.5738656779 106.887997328,43.3298655839 106.887997328,47.9485321349 L106.887997328,89.5938644268 C106.887997328,94.2138643118 103.130664088,97.9711975508 98.510664204,97.9711975508
L70.938664893,97.9711975508 C70.759998231,97.9818642168 70.373331574,97.9978642168 69.817331588,97.9978642168"/>
      </g>
      <g
          id="C1715830">
         <path
             style="fill:#E8483D;stroke:none"
             id="83715830"
             d="M70.770931564,44.9067988779 C69.298931601,44.9067988779 68.104264964,43.7121322409 68.104264964,42.2401322779 L68.104264964,34.5654658029 C68.104264964,33.1361325049 67.736264973,32.1014658639 66.977598325,31.4027992149
C65.606931693,30.1387992469 63.110931755,30.0401325829 62.266931776,30.1107992479 L62.033598449,30.1214659139 L11.918933035,30.1214659139 C8.190933128,30.1214659139 5.272266535,28.9734659429 3.241599919,26.7107993329
C0.270933326,23.3987994149 0.432266656,19.002799525 0.516266654,17.988132884 L0.516266654,2.666799933994 C0.516266654,1.194799969997 1.709599957,0.000133334 3.182933254,0.000133334 C4.654933217,0.000133334 5.849599854,1.194799969997 5.849599854,2.666799933994
L5.833599854,18.396132874 C5.832266521,18.408132873 5.576266527,21.3521328 7.230933152,23.1694660879 C8.206933128,24.2441327279 9.785599755,24.7881327139 11.918933035,24.7881327139 L61.928265118,24.7881327139
C62.90693176,24.7227993819 67.405598315,24.5747993859 70.556264903,27.4481326469 C71.870931536,28.6467992839 73.437598164,30.8534658959 73.437598164,34.5654658029 L73.437598164,42.2401322779 C73.437598164,43.7121322409 72.242931527,44.9067988779 70.770931564,44.9067988779"/>
      </g>
      <g
          id="25715830">
         <path
             style="fill:#E8483D;stroke:none"
             id="17715830"
             d="M88.039064466,44.9067988779 C86.567064502,44.9067988779 85.372397866,43.7121322409 85.372397866,42.2401322779 L85.372397866,34.5654658029 C85.372397866,30.8534658959 86.939064493,28.6467992839 88.253731127,27.4481326469
C91.361731049,24.6134660519 95.784397605,24.7134660489 96.839064246,24.7854660469 C98.837730862,24.7414660479 100.324397492,24.1987993949 101.259064135,23.1694660879 C102.91373076,21.3521328 102.657730767,18.408132873 102.6550641,18.378799541
L102.640397434,18.108132881 L102.640397434,2.666799933994 C102.640397434,1.194799969997 103.835064071,0.000133334 105.307064034,0.000133334 C106.78039733,0.000133334 107.973730634,1.194799969997 107.973730634,2.666799933994
L107.973730634,17.988132884 C108.057730632,19.002799525 108.219063961,23.4001327489 105.248397369,26.7107993329 C103.255064085,28.9321326099 100.40439749,30.0787992479 96.77639758,30.1201325809 L96.77639758,30.1214659139
L96.085730931,30.0947992479 L96.077730931,30.0947992479 C95.007064291,30.0947992479 93.007064341,30.3214659089 91.832397704,31.4027992149 C91.073731056,32.1014658639 90.705731066,33.1361325049 90.705731066,34.5654658029
L90.705731066,42.2401322779 C90.705731066,43.7121322409 89.511064429,44.9067988779 88.039064466,44.9067988779"/>
      </g>
      <g
          id="98715830">
         <path
             style="fill:#E8483D;stroke:none"
             id="5A715830"
             d="M20.856799478,29.2466659359 C19.384799515,29.2466659359 18.190132878,28.0519992989 18.190132878,26.5799993359 L18.190132878,2.666666599994 C18.190132878,1.194666636997 19.384799515,0 20.856799478,0 C22.328799442,0 23.523466078,1.194666636997 23.523466078,2.666666599994
L23.523466078,26.5799993359 C23.523466078,28.0519992989 22.328799442,29.2466659359 20.856799478,29.2466659359"/>
      </g>
      <g
          id="EB715830">
         <path
             style="fill:#E8483D;stroke:none"
             id="9D715830"
             d="M38.737065698,29.2466659359 C37.265065735,29.2466659359 36.070399098,28.0519992989 36.070399098,26.5799993359 L36.070399098,2.666666599994 C36.070399098,1.194666636997 37.265065735,0 38.737065698,0 C40.209065661,0 41.403732298,1.194666636997 41.403732298,2.666666599994
L41.403732298,26.5799993359 C41.403732298,28.0519992989 40.209065661,29.2466659359 38.737065698,29.2466659359"/>
      </g>
      <g
          id="1F715830">
         <path
             style="fill:#E8483D;stroke:none"
             id="D0815830"
             d="M56.614665251,29.2466659359 C55.142665288,29.2466659359 53.947998651,28.0519992989 53.947998651,26.5799993359 L53.947998651,2.666666599994 C53.947998651,1.194666636997 55.142665288,0 56.614665251,0 C58.086665214,0 59.281331851,1.194666636997 59.281331851,2.666666599994
L59.281331851,26.5799993359 C59.281331851,28.0519992989 58.086665214,29.2466659359 56.614665251,29.2466659359"/>
      </g>
      <g
          id="42815830">
         <path
             style="fill:#E8483D;stroke:none"
             id="24815830"
             d="M70.770931564,37.2323990689 C69.298931601,37.2323990689 68.104264964,36.0377324329 68.104264964,34.5657324689 L68.104264964,2.667066599994 C68.104264964,1.195066636997 69.298931601,0.0004 70.770931564,0.0004
C72.242931527,0.0004 73.437598164,1.195066636997 73.437598164,2.667066599994 L73.437598164,34.5657324689 C73.437598164,36.0377324329 72.242931527,37.2323990689 70.770931564,37.2323990689"/>
      </g>
      <g
          id="C5815830">
         <path
             style="fill:#E8483D;stroke:none"
             id="77815830"
             d="M88.039064466,37.2323990689 C86.567064502,37.2323990689 85.372397866,36.0377324329 85.372397866,34.5657324689 L85.372397866,2.667066599994 C85.372397866,1.195066636997 86.567064502,0.0004 88.039064466,0.0004
C89.511064429,0.0004 90.705731066,1.195066636997 90.705731066,2.667066599994 L90.705731066,34.5657324689 C90.705731066,36.0377324329 89.511064429,37.2323990689 88.039064466,37.2323990689"/>
      </g>
      <g
          id="29815830">
         <path
             style="fill:#E8483D;stroke:none"
             id="7B815830"
             d="M79.358131349,66.1542650129 C77.20479807,66.1542650129 75.05146479,65.6235983599 73.214131503,64.5609317199 C69.844798254,62.6115984349 67.918131635,59.1422651879 67.924798302,55.0462652909 L73.258131502,55.0542652909
C73.254131502,57.8369318879 74.683464799,59.2489318519 75.886131436,59.9449318349 C77.926131385,61.1262651389 80.78079798,61.1275984719 82.827464596,59.9475985019 C84.034131232,59.2515985189 85.47146453,57.8382652209 85.47146453,55.0502652909
L90.80479773,55.0502652909 C90.80479773,59.1515985219 88.868797778,62.6209317679 85.491464529,64.5675983859 C83.656797908,65.6262650259 81.506131295,66.1542650129 79.358131349,66.1542650129"/>
      </g>
      <g
          id="FC815830">
         <path
             style="fill:#E8483D;stroke:none"
             id="FE815830"
             d="M23.122399422,64.9849317089 L3.150399921,64.9849317089 L3.150399921,59.6515985089 L23.122399422,59.6515985089 C26.510399337,59.6515985089 27.955732634,58.2755985429 27.955732634,55.0502652909 L33.289065834,55.0502652909
C33.289065834,61.2715984689 29.487732596,64.9849317089 23.122399422,64.9849317089"/>
      </g>
   </g>
</svg>
