<?xml version="1.0" encoding="UTF-8"?>
<!-- Created with EazyDraw for Mac ( http://www.eazydraw.com/ ) -->

<svg
    version="1.1"
    xmlns:dc="http://purl.org/dc/elements/1.1/"
    xmlns:cc="http://creativecommons.org/ns#"
    xmlns:rdf="http://www.w3.org/1999/02/22-rdf-syntax-ns#"
    xmlns:svg="http://www.w3.org/2000/svg"
    xmlns:xlink="http://www.w3.org/1999/xlink"
    xmlns="http://www.w3.org/2000/svg"
    width="119.60292351"
    height="229.723060923"
    viewBox="0, 0, 119.60292351, 229.723060923"
    preserveAspectRatio="none"
    id="svg2">
   <defs
       id="defs_A8BF1140"/>
   <metadata
       id="metadata7">
      <rdf:RDF>
         <cc:Work
             rdf:about="">
            <dc:format>image/svg+xml</dc:format>
            <dc:type rdf:resource="http://purl.org/dc/dcmitype/StillImage"/>
            <dc:title></dc:title>
         </cc:Work>
      </rdf:RDF>
   </metadata>
   <g
       id="layer_Paper"
       style="fill:#000000;fill-opacity:1;stroke:#000000;stroke-opacity:1;fill-rule:nonzero;stroke-linecap:square;stroke-linejoin:miter;stroke-width:1;stroke-miterlimit:10">
      <g
          id="1F6E4830">
         <path
             style="fill:#3F4096;stroke:none"
             id="047E4830"
             d="M15.112132955,153.976796151 C15.140132955,153.736796157 15.377466282,153.552796162 15.589466277,153.552796162 L16.014799599,153.552796162 C16.146799596,153.552796162 16.385466257,153.658129492 16.465466255,153.818129488
L22.620132768,165.279462535 L22.6734661,165.279462535 L28.828132612,153.818129488 C28.90813261,153.658129492 29.146799271,153.552796162 29.278799268,153.552796162 L29.702799257,153.552796162 C29.916132585,153.552796162 30.154799246,153.736796157 30.181465912,153.976796151
L33.17879917,171.804795705 C33.232132502,172.15012903 32.993465842,172.388795691 32.674799183,172.388795691 L29.544132594,172.388795691 C29.306799267,172.388795691 29.066799273,172.175462363 29.040132607,171.963462368
L27.846799304,163.76612924 L27.793465972,163.76612924 L23.33613275,172.362129025 C23.256132752,172.520795687 23.018799424,172.654129017 22.885466094,172.654129017 L22.408132773,172.654129017 C22.24946611,172.654129017 22.036132782,172.520795687 21.957466117,172.362129025
L17.47346623,163.76612924 L17.420132898,163.76612924 L16.252132927,171.963462368 C16.226799594,172.175462363 16.014799599,172.388795691 15.749466273,172.388795691 L12.618799684,172.388795691 C12.300133026,172.388795691 12.061466365,172.15012903 12.114799697,171.804795705
z"/>
      </g>
      <g
          id="CF7E4830">
         <path
             style="fill:#3F4096;stroke:none"
             id="738E4830"
             d="M44.755465547,168.409062457 C47.672798808,168.409062457 50.060798748,166.021062517 50.060798748,163.129062589 C50.060798748,160.211729329 47.672798808,157.797062722 44.755465547,157.797062722 C41.86346562,157.797062722 39.475465679,160.211729329 39.475465679,163.129062589
C39.475465679,166.021062517 41.86346562,168.409062457 44.755465547,168.409062457 M44.755465547,153.551729495 C50.060798748,153.551729495 54.306131975,157.823729388 54.306131975,163.129062589 C54.306131975,168.435729123 50.060798748,172.654395684 44.755465547,172.654395684
C39.450132347,172.654395684 35.230132452,168.435729123 35.230132452,163.129062589 C35.230132452,157.823729388 39.450132347,153.551729495 44.755465547,153.551729495"/>
      </g>
      <g
          id="468E4830">
         <path
             style="fill:#3F4096;stroke:none"
             id="798E4830"
             d="M57.256665235,154.321862809 C57.256665235,154.056529482 57.496665229,153.817862822 57.761998556,153.817862822 L61.024665141,153.817862822 C61.316665133,153.817862822 61.528665128,154.056529482 61.528665128,154.321862809
L61.528665128,165.065862541 C61.528665128,166.923195827 62.90733176,168.408529124 64.791331713,168.408529124 C66.701998332,168.408529124 68.108664964,166.923195827 68.108664964,165.065862541 L68.108664964,154.321862809
C68.108664964,154.056529482 68.320664958,153.817862822 68.612664951,153.817862822 L71.875331536,153.817862822 C72.140664863,153.817862822 72.379331524,154.056529482 72.379331524,154.321862809 L72.379331524,165.279195869
C72.379331524,169.309862434 68.983331608,172.653862351 64.791331713,172.653862351 C60.625998484,172.653862351 57.256665235,169.309862434 57.256665235,165.279195869 z"/>
      </g>
      <g
          id="6C8E4830">
         <path
             style="fill:#3F4096;stroke:none"
             id="8F8E4830"
             d="M75.596531443,169.86746242 L76.844531412,167.666129142 C77.056531407,167.320795817 77.560531394,167.374129149 77.745864723,167.506129146 C77.851198053,167.560795811 79.761864672,168.96612911 81.512531295,168.96612911
C82.573864602,168.96612911 83.344531249,168.302129126 83.344531249,167.374129149 C83.344531249,166.259462511 82.415197939,165.410129199 80.611197984,164.694129216 C78.329864708,163.791462572 75.463198113,162.014129283 75.463198113,158.831462696
C75.463198113,156.204796095 77.507198062,153.552796162 81.592531293,153.552796162 C84.351197891,153.552796162 86.473864505,154.95812946 87.269864485,155.542129445 C87.588531143,155.727462774 87.535197811,156.204796095 87.428531147,156.391462757
L86.075197848,158.434129373 C85.891197852,158.726129366 85.412531198,158.963462693 85.17519787,158.779462698 C84.935197876,158.646129368 82.999197925,157.186129404 81.380531299,157.186129404 C80.425864656,157.186129404 79.70853134,157.823462722 79.70853134,158.539462704
C79.70853134,159.520796012 80.505864654,160.264795994 82.600531268,161.114129306 C84.671197883,161.935462619 87.959197801,163.554129245 87.959197801,167.162129155 C87.959197801,169.89546242 85.59919786,172.654129017 81.699197957,172.654129017
C78.24986471,172.654129017 76.340531425,171.222129053 75.729864773,170.611462402 C75.463198113,170.344795742 75.384531448,170.239462411 75.596531443,169.86746242"/>
      </g>
      <g
          id="629E4830">
         <path
             style="fill:#3F4096;stroke:none"
             id="A59E4830"
             d="M90.139597746,169.86746242 L91.387597715,167.666129142 C91.59959771,167.320795817 92.103597697,167.374129149 92.288931026,167.506129146 C92.394264357,167.560795811 94.304930975,168.96612911 96.055597598,168.96612911
C97.116930905,168.96612911 97.887597553,168.302129126 97.887597553,167.374129149 C97.887597553,166.259462511 96.958264242,165.410129199 95.154264288,164.694129216 C92.872931011,163.791462572 90.006264416,162.014129283 90.006264416,158.831462696
C90.006264416,156.204796095 92.050264365,153.552796162 96.135597596,153.552796162 C98.894264194,153.552796162 101.016930808,154.95812946 101.812930788,155.542129445 C102.131597446,155.727462774 102.078264114,156.204796095 101.972930784,156.391462757
L100.618264151,158.434129373 C100.434264156,158.726129366 99.955597501,158.963462693 99.718264173,158.779462698 C99.478264179,158.646129368 97.542264228,157.186129404 95.923597602,157.186129404 C94.967597626,157.186129404 94.251597643,157.823462722 94.251597643,158.539462704
C94.251597643,159.520796012 95.048930957,160.264795994 97.143597571,161.114129306 C99.212930853,161.935462619 102.502264104,163.554129245 102.502264104,167.162129155 C102.502264104,169.89546242 100.142264163,172.654129017 96.240930927,172.654129017
C92.792931013,172.654129017 90.883597728,171.222129053 90.272931076,170.611462402 C90.006264416,170.344795742 89.927597752,170.239462411 90.139597746,169.86746242"/>
      </g>
      <g
          id="589E4830">
         <path
             style="fill:#3F4096;stroke:none"
             id="A1AE4830"
             d="M105.743730689,154.321862809 C105.743730689,154.056529482 105.955730684,153.817862822 106.247730677,153.817862822 L117.231730402,153.817862822 C117.523730395,153.817862822 117.73573039,154.056529482 117.73573039,154.321862809
L117.73573039,157.213862737 C117.73573039,157.47786273 117.523730395,157.717862724 117.231730402,157.717862724 L109.882397253,157.717862724 L109.882397253,161.007195975 L115.931730435,161.007195975 C116.197063761,161.007195975 116.435730422,161.244529303 116.435730422,161.511195963
L116.435730422,164.40319589 C116.435730422,164.69386255 116.197063761,164.905862545 115.931730435,164.905862545 L109.882397253,164.905862545 L109.882397253,168.488529122 L117.231730402,168.488529122 C117.523730395,168.488529122 117.73573039,168.727195782 117.73573039,168.992529109
L117.73573039,171.884529037 C117.73573039,172.149862363 117.523730395,172.388529024 117.231730402,172.388529024 L106.247730677,172.388529024 C105.955730684,172.388529024 105.743730689,172.149862363 105.743730689,171.884529037
z"/>
      </g>
      <g
          id="ACAE4830">
         <path
             style="fill:#3F4096;stroke:none"
             id="EABE4830"
             d="M61.530131795,128.975463443 C61.530131795,128.710130116 61.742131789,128.471463455 62.034131782,128.471463455 L73.018131508,128.471463455 C73.3101315,128.471463455 73.522131495,128.710130116 73.522131495,128.975463443
L73.522131495,131.86746337 C73.522131495,132.131463364 73.3101315,132.371463358 73.018131508,132.371463358 L65.668798358,132.371463358 L65.668798358,136.191463262 L71.71813154,136.191463262 C71.983464867,136.191463262 72.222131527,136.430129923 72.222131527,136.69546325
L72.222131527,139.587463177 C72.222131527,139.851463171 71.983464867,140.091463165 71.71813154,140.091463165 L65.668798358,140.091463165 L65.668798358,146.53812967 C65.668798358,146.803462997 65.430131697,147.042129658 65.166131704,147.042129658
L62.034131782,147.042129658 C61.742131789,147.042129658 61.530131795,146.803462997 61.530131795,146.53812967 z"/>
      </g>
      <g
          id="FDBE4830">
         <path
             style="fill:#3F4096;stroke:none"
             id="D3CE4830"
             d="M76.471598088,128.975463443 C76.471598088,128.710130116 76.711598082,128.471463455 76.975598075,128.471463455 L80.159597996,128.471463455 C80.424931322,128.471463455 80.663597983,128.710130116 80.663597983,128.975463443
L80.663597983,146.53812967 C80.663597983,146.803462997 80.424931322,147.042129658 80.159597996,147.042129658 L76.975598075,147.042129658 C76.711598082,147.042129658 76.471598088,146.803462997 76.471598088,146.53812967
z"/>
      </g>
      <g
          id="C7CE4830">
         <path
             style="fill:#3F4096;stroke:none"
             id="FF3F4830"
             d="M85.203331203,128.682530117 C85.203331203,128.418530123 85.441997864,128.206530129 85.70733119,128.206530129 L86.36999784,128.206530129 L96.955330909,138.393196541 L96.981997575,138.393196541 L96.981997575,128.975863443
C96.981997575,128.710530116 97.19399757,128.471863455 97.485997563,128.471863455 L100.671330816,128.471863455 C100.93533081,128.471863455 101.175330804,128.710530116 101.175330804,128.975863443 L101.175330804,146.82919633
C101.175330804,147.09586299 100.93533081,147.307862984 100.671330816,147.307862984 L100.245997494,147.307862984 C100.165997496,147.307862984 99.953997501,147.227862986 99.900664169,147.174529654 L89.420664431,136.642529918
L89.395331098,136.642529918 L89.395331098,146.53852967 C89.395331098,146.803862997 89.18199777,147.042529658 88.891331111,147.042529658 L85.732664523,147.042529658 C85.46866453,147.042529658 85.229997869,146.803862997 85.229997869,146.53852967
z"/>
      </g>
      <g
          id="126F4830">
         <path
             style="fill:#3F4096;stroke:none"
             id="256F4830"
             d="M105.743730689,128.975463443 C105.743730689,128.710130116 105.955730684,128.471463455 106.247730677,128.471463455 L117.231730402,128.471463455 C117.523730395,128.471463455 117.73573039,128.710130116 117.73573039,128.975463443
L117.73573039,131.86746337 C117.73573039,132.131463364 117.523730395,132.371463358 117.231730402,132.371463358 L109.882397253,132.371463358 L109.882397253,135.660796609 L115.931730435,135.660796609 C116.197063761,135.660796609 116.435730422,135.898129936 116.435730422,136.164796596
L116.435730422,139.056796524 C116.435730422,139.347463183 116.197063761,139.559463178 115.931730435,139.559463178 L109.882397253,139.559463178 L109.882397253,143.142129755 L117.231730402,143.142129755 C117.523730395,143.142129755 117.73573039,143.380796416 117.73573039,143.646129743
L117.73573039,146.53812967 C117.73573039,146.803462997 117.523730395,147.042129658 117.231730402,147.042129658 L106.247730677,147.042129658 C105.955730684,147.042129658 105.743730689,146.803462997 105.743730689,146.53812967
z"/>
      </g>
      <g
          id="A76F4830">
         <path
             style="fill:#3F4096;stroke:none"
             id="CB6F4830"
             d="M75.346531449,107.670797309 L71.669198208,107.670797309 C71.386531548,107.670797309 71.18119822,107.438797315 71.18119822,107.182797321 L71.18119822,104.378797391 C71.18119822,104.122797397 71.386531548,103.890797403 71.669198208,103.890797403
L83.087864589,103.890797403 C83.370531249,103.890797403 83.575864577,104.122797397 83.575864577,104.378797391 L83.575864577,107.182797321 C83.575864577,107.438797315 83.370531249,107.670797309 83.087864589,107.670797309
L79.410531348,107.670797309 L79.410531348,121.404130299 C79.410531348,121.660130292 79.178531354,121.892130287 78.921198027,121.892130287 L75.834531437,121.892130287 C75.578531444,121.892130287 75.346531449,121.660130292 75.346531449,121.404130299
z"/>
      </g>
      <g
          id="F57F4830">
         <path
             style="fill:#3F4096;stroke:none"
             id="4B7F4830"
             d="M86.144797846,104.379064058 C86.144797846,104.123064064 86.375464507,103.89106407 86.632797834,103.89106407 L89.692797757,103.89106407 C89.975464417,103.89106407 90.180797745,104.123064064 90.180797745,104.379064058
L90.180797745,110.859063896 L97.536797561,110.859063896 L97.536797561,104.379064058 C97.536797561,104.123064064 97.742130889,103.89106407 98.024797549,103.89106407 L101.084797473,103.89106407 C101.342130799,103.89106407 101.574130794,104.123064064 101.574130794,104.379064058
L101.574130794,121.404396965 C101.574130794,121.660396959 101.342130799,121.892396953 101.084797473,121.892396953 L98.024797549,121.892396953 C97.742130889,121.892396953 97.536797561,121.660396959 97.536797561,121.404396965
L97.536797561,114.639063801 L90.180797745,114.639063801 L90.180797745,121.404396965 C90.180797745,121.660396959 89.975464417,121.892396953 89.692797757,121.892396953 L86.632797834,121.892396953 C86.375464507,121.892396953 86.144797846,121.660396959 86.144797846,121.404396965
z"/>
      </g>
      <g
          id="608F4830">
         <path
             style="fill:#3F4096;stroke:none"
             id="148F4830"
             d="M105.993730683,104.379064058 C105.993730683,104.123064064 106.199064011,103.89106407 106.481730671,103.89106407 L117.128397071,103.89106407 C117.411063731,103.89106407 117.616397059,104.123064064 117.616397059,104.379064058
L117.616397059,107.183063988 C117.616397059,107.439063981 117.411063731,107.671063975 117.128397071,107.671063975 L110.00439725,107.671063975 L110.00439725,110.859063896 L115.868397103,110.859063896 C116.12573043,110.859063896 116.356397091,111.09106389 116.356397091,111.348397217
L116.356397091,114.151063813 C116.356397091,114.433730473 116.12573043,114.639063801 115.868397103,114.639063801 L110.00439725,114.639063801 L110.00439725,118.112397048 L117.128397071,118.112397048 C117.411063731,118.112397048 117.616397059,118.343063709 117.616397059,118.600397035
L117.616397059,121.404396965 C117.616397059,121.660396959 117.411063731,121.892396953 117.128397071,121.892396953 L106.481730671,121.892396953 C106.199064011,121.892396953 105.993730683,121.660396959 105.993730683,121.404396965
z"/>
      </g>
      <g
          id="E78F4830">
         <path
             style="fill:#E8483D;stroke:none"
             id="BB8F4830"
             d="M113.149997171,89.5933310938 C113.149997171,91.2719977188 111.784663872,92.6359976848 110.105997247,92.6359976848 L82.449997938,92.6359976848 L82.257997943,92.6426643508 C82.213997944,92.6466643508 81.912664619,92.6639976838 81.412664631,92.6639976838
C79.125998022,92.6639976838 71.200664886,92.2546643608 65.208665036,86.9813311588 C52.487332021,75.7893314388 31.520665878,74.5813314688 23.097999422,74.5813314688 C21.371332799,74.5813314688 20.237999494,74.6319981348 19.908666169,74.6506648008
C18.259332877,74.6173314678 16.928666243,73.2653315018 16.928666243,71.6093315438 L16.928666243,64.9839983759 L34.717999132,64.9839983759 C41.083332306,64.9839983759 44.884665544,61.2706651349 44.884665544,55.0493319579
L39.551332344,55.0493319579 C39.551332344,58.2746652099 38.105999047,59.6506651759 34.717999132,59.6506651759 L16.928666243,59.6506651759 L16.928666243,47.9479988019 C16.928666243,46.2706655099 18.292666209,44.9053322109 19.9699995,44.9053322109
L110.105997247,44.9053322109 C111.784663872,44.9053322109 113.149997171,46.2706655099 113.149997171,47.9479988019 z M110.105997247,39.5719990109 L102.300664109,39.5719990109 L102.300664109,34.5653324699
C102.300664109,33.1346658389 102.669997433,32.1013325309 103.427330747,31.4013325489 C104.601997385,30.3199992419 106.601997335,30.0933325809 107.673997308,30.0933325809 L107.680663974,30.0933325809 L108.371330624,30.1213325809
L108.371330624,30.1199992469 C112.000663866,30.0773325819 114.849997128,28.9306659439 116.844663745,26.7093326659 C119.813997004,23.3986660819 119.652663675,19.002666192 119.568663677,17.986666217 L119.568663677,2.666666599994
C119.568663677,1.193333303997 118.375330374,0 116.901997077,0 C115.429997114,0 114.235330477,1.193333303997 114.235330477,2.666666599994 L114.235330477,18.107999548 L114.249997143,18.377332874 C114.25266381,18.406666207 114.509997137,21.350666133 112.853997178,23.1693327549
C111.919330535,24.1973327289 110.432663906,24.7399993819 108.433997289,24.7853327139 C107.637997309,24.7306660489 104.921997377,24.6626660509 102.300664109,25.8506660209 L102.300664109,2.666666599994 C102.300664109,1.193333303997 101.107330805,0 99.633997509,0
C98.161997546,0 96.967330909,1.193333303997 96.967330909,2.666666599994 L96.967330909,34.5653324699 L96.967330909,39.5719990109 L85.032664541,39.5719990109 L85.032664541,34.5653324699 L85.032664541,2.666666599994
C85.032664541,1.193333303997 83.839331237,0 82.365997941,0 C80.893997977,0 79.699331341,1.193333303997 79.699331341,2.666666599994 L79.699331341,25.8533326869 C77.031331407,24.6439993839 74.26466481,24.7373327149 73.523331495,24.7879993809
L70.876664894,24.7879993809 L70.876664894,2.666666599994 C70.876664894,1.193333303997 69.681998258,0 68.209998294,0 C66.736664998,0 65.543331694,1.193333303997 65.543331694,2.666666599994 L65.543331694,24.7879993809
L52.999332008,24.7879993809 L52.999332008,2.666666599994 C52.999332008,1.193333303997 51.804665371,0 50.332665408,0 C48.859332112,0 47.665998808,1.193333303997 47.665998808,2.666666599994 L47.665998808,24.7879993809
L35.119332455,24.7879993809 L35.119332455,2.666666599994 C35.119332455,1.193333303997 33.924665818,0 32.452665855,0 C30.979332559,0 29.785999255,1.193333303997 29.785999255,2.666666599994 L29.785999255,24.7879993809
L23.513999412,24.7879993809 C21.380666132,24.7879993809 19.801999505,24.2426660609 18.825999529,23.1693327549 C17.171332904,21.350666133 17.427332897,18.406666207 17.428666231,18.395999541 L17.44466623,2.666666599994
C17.44466623,1.193333303997 16.249999593,0 14.77799963,0 C13.304666334,0 12.11133303,1.193333303997 12.11133303,2.666666599994 L12.11133303,17.986666217 C12.027333032,19.002666192 11.865999703,23.3986660819 14.836666295,26.7093326659
C16.867332911,28.9719992759 19.787332838,30.1213325809 23.513999412,30.1213325809 L73.628664826,30.1213325809 L73.861998153,30.1106659139 C74.705998132,30.0386659159 77.20199807,30.1373325799 78.572664702,31.4013325489
C79.33133135,32.1013325309 79.699331341,33.1346658389 79.699331341,34.5653324699 L79.699331341,39.5719990109 L19.9699995,39.5719990109 C15.351332949,39.5719990109 11.595333043,43.3293322509 11.595333043,47.9479988019
L11.595333043,71.6093315438 C11.595333043,76.2279980948 15.351332949,79.9839980008 19.9699995,79.9839980008 L20.12733283,79.9786646678 C20.13933283,79.9786646678 21.245999469,79.9146646688 23.097999422,79.9146646688
C30.91533256,79.9146646688 50.327332075,80.9933313088 61.684665124,90.9866643918 C68.877998278,97.3146642338 77.877998053,97.9973308838 81.412664631,97.9973308838 C81.968664617,97.9973308838 82.355331274,97.9799975508 82.533997936,97.9693308848
L110.105997247,97.9693308848 C114.725997132,97.9693308848 118.483330371,94.2119976448 118.483330371,89.5933310938 L118.483330371,47.9479988019 C118.483330371,43.3293322509 114.725997132,39.5719990109 110.105997247,39.5719990109"/>
      </g>
      <g
          id="4E8F4830">
         <path
             style="fill:#E8483D;stroke:none"
             id="319F4830"
             d="M94.422130972,59.9461318349 C92.37679769,61.1274651389 89.520797762,61.1247984719 87.480797813,59.9434651689 C86.279464509,59.2487985189 84.848797878,57.8354652209 84.852797878,55.0527986239 L79.519464678,55.0447986239
C79.512798012,59.1407985219 81.440797964,62.6101317689 84.808797879,64.5594650529 C86.646131167,65.6221316929 88.799464446,66.1527983469 90.952797726,66.1527983469 C93.102131005,66.1527983469 95.251464285,65.6247983599 97.086130906,64.5661317199
C100.463464155,62.6194651019 102.399464106,59.1501318549 102.399464106,55.0487986239 L97.066130906,55.0487986239 C97.066130906,57.8367985549 95.628797609,59.2514651859 94.422130972,59.9461318349"/>
      </g>
      <g
          id="A39F4830">
         <path
             style="fill:#E8483D;stroke:none"
             id="869F4830"
             d="M115.566663777,203.601728244 L14.011999649,203.601728244 C12.538666353,203.601728244 11.345333049,204.796394881 11.345333049,206.268394844 L11.345333049,227.056394323 C11.345333049,228.528394286 12.538666353,229.723060923 14.011999649,229.723060923
C15.483999613,229.723060923 16.678666249,228.528394286 16.678666249,227.056394323 L16.678666249,208.935061444 L30.311999242,208.935061444 L30.311999242,227.056394323 C30.311999242,228.528394286 31.505332545,229.723060923 32.978665842,229.723060923
C34.450665805,229.723060923 35.645332442,228.528394286 35.645332442,227.056394323 L35.645332442,208.935061444 L96.717330915,208.935061444 L96.717330915,227.005727658 C96.717330915,228.477727621 97.911997552,229.672394258 99.383997515,229.672394258
C100.857330812,229.672394258 102.050664115,228.477727621 102.050664115,227.005727658 L102.050664115,208.935061444 L112.899997177,208.935061444 L112.899997177,226.955060992 C112.899997177,228.427060955 114.094663814,229.621727592 115.566663777,229.621727592
C117.03866374,229.621727592 118.233330377,228.427060955 118.233330377,226.955060992 L118.233330377,206.268394844 C118.233330377,204.796394881 117.03866374,203.601728244 115.566663777,203.601728244"/>
      </g>
      <g
          id="599F4830">
         <path
             style="fill:#3F4096;stroke:none"
             id="3B9F4830"
             d="M16.975466242,193.63959516 C17.332799566,193.63959516 17.628799559,193.342261834 17.628799559,192.984928509 C17.628799559,192.627595185 17.332799566,192.331595192 16.975466242,192.331595192 L15.010132958,192.331595192
L15.010132958,193.63959516 z M17.411466231,196.258261761 C17.770132889,196.258261761 18.064799548,195.960928435 18.064799548,195.60359511 C18.064799548,195.246261786 17.770132889,194.94892846 17.411466231,194.94892846
L15.003466291,194.94892846 L15.003466291,196.258261761 z M19.375466182,195.60359511 C19.375466182,196.68626175 18.494132871,197.567595061 17.411466231,197.567595061 L13.70213299,197.567595061 L13.70213299,191.020928558
L16.975466242,191.020928558 C18.058132882,191.020928558 18.939466193,191.90226187 18.939466193,192.984928509 C18.939466193,193.378261833 18.826132862,193.74492849 18.623466201,194.058261816 C19.078132856,194.416928473 19.375466182,194.975595126 19.375466182,195.60359511"/>
      </g>
      <g
          id="BC9F4830">
         <path
             style="fill:#3F4096;stroke:none"
             id="DE9F4830"
             d="M28.195465961,194.730661799 C28.195465961,196.30266176 26.920799327,197.567995061 25.358132699,197.567995061 C23.787466072,197.567995061 22.52213277,196.30266176 22.52213277,194.730661799 L22.52213277,191.021328558
L23.831466071,191.021328558 L23.831466071,194.730661799 C23.831466071,195.577328444 24.511466054,196.258661761 25.358132699,196.258661761 C26.204799345,196.258661761 26.886132661,195.577328444 26.886132661,194.730661799
L26.886132661,191.021328558 L28.195465961,191.021328558 z"/>
      </g>
      <g
          id="71AF4830">
         <path
             style="fill:#3F4096;stroke:none"
             id="54AF4830"
             d="M35.139599121,193.63959516 C35.496932446,193.63959516 35.792932438,193.342261834 35.792932438,192.984928509 C35.792932438,192.627595185 35.496932446,192.331595192 35.139599121,192.331595192 L33.174265837,192.331595192
L33.174265837,193.63959516 z M35.57559911,196.258261761 C35.934265768,196.258261761 36.228932427,195.960928435 36.228932427,195.60359511 C36.228932427,195.246261786 35.934265768,194.94892846 35.57559911,194.94892846
L33.167599171,194.94892846 L33.167599171,196.258261761 z M37.539599061,195.60359511 C37.539599061,196.68626175 36.65826575,197.567595061 35.57559911,197.567595061 L31.86626587,197.567595061 L31.86626587,191.020928558
L35.139599121,191.020928558 C36.222265761,191.020928558 37.103599072,191.90226187 37.103599072,192.984928509 C37.103599072,193.378261833 36.990265742,193.74492849 36.78759908,194.058261816 C37.242265735,194.416928473 37.539599061,194.975595126 37.539599061,195.60359511"/>
      </g>
      <g
          id="C6AF4830">
         <path
             style="fill:#3F4096;stroke:none"
             id="3AAF4830"
             d="M44.134265563,193.63959516 C44.491598887,193.63959516 44.78759888,193.342261834 44.78759888,192.984928509 C44.78759888,192.627595185 44.491598887,192.331595192 44.134265563,192.331595192 L42.168932279,192.331595192
L42.168932279,193.63959516 z M44.570265552,196.258261761 C44.92893221,196.258261761 45.223598869,195.960928435 45.223598869,195.60359511 C45.223598869,195.246261786 44.92893221,194.94892846 44.570265552,194.94892846
L42.162265612,194.94892846 L42.162265612,196.258261761 z M46.534265503,195.60359511 C46.534265503,196.68626175 45.652932192,197.567595061 44.570265552,197.567595061 L40.860932312,197.567595061 L40.860932312,191.020928558
L44.134265563,191.020928558 C45.216932203,191.020928558 46.098265514,191.90226187 46.098265514,192.984928509 C46.098265514,193.378261833 45.984932183,193.74492849 45.782265522,194.058261816 C46.236932177,194.416928473 46.534265503,194.975595126 46.534265503,195.60359511"/>
      </g>
      <g
          id="2DAF4830">
         <polyline
             style="fill:#3F4096;stroke:none"
             id="83BF4830"
             points="49.855732087,191.021061892 51.163732054,191.021061892 51.163732054,196.258395094 54.6570653,196.258395094 54.6570653,197.567728395 49.855732087,197.567728395 49.855732087,191.021061892"/>
      </g>
      <g
          id="F6BF4830">
         <polyline
             style="fill:#3F4096;stroke:none"
             id="1ABF4830"
             points="55.968931934,191.021061892 57.514265229,191.021061892 59.251598518,193.797061822 60.996931808,191.021061892 62.542265103,191.021061892 59.904931835,195.21839512 59.904931835,197.567728395 58.596931868,197.567728395 58.596931868,195.21839512 55.968931934,191.021061892"/>
      </g>
      <g
          id="FBBF4830">
         <path
             style="fill:#3F4096;stroke:none"
             id="4EBF4830"
             d="M71.617464876,192.392128524 C71.530798211,192.312128526 71.389464882,192.312128526 71.31213155,192.392128524 C71.224131552,192.478795189 71.224131552,192.618795185 71.31213155,192.70546185 L71.460131547,192.854795179
L71.617464876,192.70546185 C71.70413154,192.618795185 71.70413154,192.478795189 71.617464876,192.392128524 M71.957464867,196.066795099 L72.385464857,195.63879511 L71.460131547,194.713461799 L71.033464891,195.141461789
C70.77879823,195.393461782 70.77879823,195.812128439 71.033464891,196.066795099 C71.285464884,196.318795093 71.70413154,196.318795093 71.957464867,196.066795099 M72.541464853,193.63079516 L72.385464857,193.778795156
L73.310798167,194.713461799 L74.10413148,193.920128486 L75.030798124,194.844128463 L74.244131477,195.63879511 L75.030798124,196.42279509 L74.10413148,197.349461733 L73.310798167,196.56412842 L72.882798178,196.990795076
C72.114798197,197.758795057 70.874798228,197.758795057 70.106798247,196.990795076 C69.338798266,196.222795095 69.338798266,194.982795126 70.106798247,194.216128478 L70.534798236,193.778795156 L70.38679824,193.63079516
C69.784131588,193.029461841 69.784131588,192.069461865 70.38679824,191.466795214 C70.978798225,190.872128562 71.948131534,190.872128562 72.541464853,191.466795214 C73.136131505,192.069461865 73.136131505,193.029461841 72.541464853,193.63079516"/>
      </g>
      <g
          id="60CF4830">
         <polyline
             style="fill:#3F4096;stroke:none"
             id="62CF4830"
             points="83.06786459,191.021061892 87.869197803,191.021061892 87.869197803,192.330395192 84.375864557,192.330395192 84.375864557,194.294395143 86.994531158,194.294395143 86.994531158,195.603728444 84.375864557,195.603728444 84.375864557,197.567728395 83.06786459,197.567728395 83.06786459,191.021061892"/>
      </g>
      <g
          id="24CF4830">
         <path
             style="fill:#3F4096;stroke:none"
             id="26CF4830"
             d="M93.58879766,194.511995138 C94.191464312,194.511995138 94.679464299,194.02399515 94.679464299,193.422661832 C94.679464299,192.818661847 94.191464312,192.330661859 93.58879766,192.330661859 L92.498131021,192.330661859
L92.498131021,194.511995138 z M96.232797594,197.567995061 L94.6714643,197.567995061 L93.527464328,195.821328438 L92.498131021,195.821328438 L92.498131021,197.567995061 L91.18879772,197.567995061 L91.18879772,191.021328558
L93.58879766,191.021328558 C94.915464293,191.021328558 95.990130933,192.095995198 95.990130933,193.422661832 C95.990130933,194.285328477 95.535464278,195.037328458 94.854130962,195.463995114 z"/>
      </g>
      <polyline
          style="fill:#3F4096;stroke:none"
          id="A8CF4830"
          points="100.907997477,197.567595061 99.59999751,197.567595061 99.59999751,191.020928558 100.907997477,191.020928558 100.907997477,197.567595061"/>
      <g
          id="0CCF4830">
         <polyline
             style="fill:#3F4096;stroke:none"
             id="A2DF4830"
             points="104.751464048,191.021061892 109.552797261,191.021061892 109.552797261,192.330395192 106.059464015,192.330395192 106.059464015,194.294395143 108.678130616,194.294395143 108.678130616,195.603728444 106.059464015,195.603728444 106.059464015,196.258395094 109.552797261,196.258395094 109.552797261,197.567728395 104.751464048,197.567728395 104.751464048,191.021061892"/>
      </g>
      <g
          id="A5DF4830">
         <path
             style="fill:#3F4096;stroke:none"
             id="A9DF4830"
             d="M116.800930413,195.603061777 C116.800930413,196.685728417 115.919597102,197.568395061 114.836930462,197.568395061 C113.903597152,197.568395061 113.126263838,196.921728411 112.926263843,196.048395099 L114.182263812,195.603061777
C114.182263812,195.961728435 114.479597138,196.257728427 114.836930462,196.257728427 C115.19559712,196.257728427 115.492930446,195.961728435 115.492930446,195.603061777 C115.492930446,195.245728453 115.19559712,194.94972846 114.836930462,194.94972846
C113.755597156,194.94972846 112.874263845,194.068395149 112.874263845,192.984395176 C112.874263845,191.90306187 113.755597156,191.020395225 114.836930462,191.020395225 C115.771597105,191.020395225 116.548930419,191.667061875 116.748930414,192.540395187
L115.492930446,192.984395176 C115.492930446,192.628395185 115.19559712,192.331061859 114.836930462,192.331061859 C114.479597138,192.331061859 114.182263812,192.628395185 114.182263812,192.984395176 C114.182263812,193.343061834 114.479597138,193.639061826 114.836930462,193.639061826
C115.919597102,193.639061826 116.800930413,194.520395137 116.800930413,195.603061777"/>
      </g>
      <g
          id="6CDF4830">
         <path
             style="fill:#E8483D;stroke:none"
             id="8EDF4830"
             d="M115.566663777,179.639595509 L14.011999649,179.639595509 C13.974666317,179.639595509 13.939999651,179.648928843 13.902666319,179.650262176 C11.927999702,179.755595507 0,180.963595476 0,194.580928469 C0,196.054261766 1.194666637,197.247595069 2.6666666,197.247595069
C4.139999896,197.247595069 5.3333332,196.054261766 5.3333332,194.580928469 C5.3333332,185.3449287 13.294666334,184.983595376 14.186666312,184.97292871 L115.566663777,184.97292871 C117.03866374,184.97292871 118.233330377,183.778262073 118.233330377,182.306262109
C118.233330377,180.834262146 117.03866374,179.639595509 115.566663777,179.639595509"/>
      </g>
   </g>
</svg>
